<svg xmlns="http://www.w3.org/2000/svg" viewBox="0 0 361.82 336.15"><defs><style>.cls-1{fill:#333340;}.cls-2{fill:#f6c09b;}.cls-3{fill:#e6927f;}.cls-4{fill:#666;}.cls-5{fill:#f8dabd;}.cls-6{fill:#f6ac9b;}.cls-7{fill:#494969;}.cls-8{fill:#e06867;}</style></defs><g id="Layer_2" data-name="Layer 2"><g id="Layer_1-2" data-name="Layer 1"><path class="cls-1" d="M329.47,195.82h9a0,0,0,0,1,0,0v8.86a0,0,0,0,1,0,0H321.66a0,0,0,0,1,0,0v-1.06A7.81,7.81,0,0,1,329.47,195.82Z" transform="translate(660.16 400.5) rotate(180)"/><path class="cls-1" d="M17.74,195.82H34.58a0,0,0,0,1,0,0v8.86a0,0,0,0,1,0,0h-9a7.81,7.81,0,0,1-7.81-7.81v-1.06A0,0,0,0,1,17.74,195.82Z"/><path class="cls-1" d="M94,0H259.6a76.24,76.24,0,0,1,76.24,76.24v17a49.42,49.42,0,0,1-49.42,49.42H17.74a0,0,0,0,1,0,0V76.24A76.24,76.24,0,0,1,94,0Z"/><rect class="cls-2" y="137.67" width="355.49" height="59.37" rx="26.15"/><rect class="cls-3" x="13.14" y="152.76" width="329.62" height="29.19" rx="12.86"/><path class="cls-2" d="M66.84,53.49H289.06A34.21,34.21,0,0,1,323.26,87.7V208A128.18,128.18,0,0,1,195.09,336.15H160.48A127.84,127.84,0,0,1,32.63,208.31V87.7A34.21,34.21,0,0,1,66.84,53.49Z"/><rect class="cls-4" x="89.34" y="138.56" width="27.47" height="58.48" rx="12.1"/><path class="cls-3" d="M134.81,239.22h92a12.26,12.26,0,0,1,12.26,12.26v6.46a33,33,0,0,1-33,33H156.48A33.47,33.47,0,0,1,123,257.49V251a11.8,11.8,0,0,1,11.8-11.8Z"/><path class="cls-5" d="M203.27,257.22h-42a18,18,0,0,1-18-18h78A18,18,0,0,1,203.27,257.22Z"/><ellipse class="cls-3" cx="180.61" cy="215.2" rx="19.49" ry="8.42"/><rect class="cls-4" x="241.75" y="138.56" width="27.47" height="58.48" rx="12.1"/><ellipse class="cls-6" cx="285.88" cy="215.17" rx="16.97" ry="7.09"/><ellipse class="cls-6" cx="72.43" cy="214.78" rx="16.97" ry="7.09"/><rect class="cls-7" x="89.51" y="116.07" width="27.47" height="15.95" rx="7.02"/><path class="cls-1" d="M65.53,39H235.72a0,0,0,0,1,0,0v9.07a67.13,67.13,0,0,1-67.13,67.13H39.83A16.77,16.77,0,0,1,23.06,98.42v-17A42.47,42.47,0,0,1,65.53,39Z"/><path class="cls-1" d="M200.52,47.85h84.39a76.9,76.9,0,0,1,76.9,76.9V136a6.62,6.62,0,0,1-6.62,6.62H227.43a51.08,51.08,0,0,1-51.08-51.08V72a24.17,24.17,0,0,1,24.17-24.17Z" transform="translate(538.17 190.5) rotate(-180)"/><path class="cls-8" d="M154.8,291.19c0-7.83,11.5-14.18,25.69-14.18s25.7,6.35,25.7,14.18"/></g></g></svg>