<svg xmlns="http://www.w3.org/2000/svg" viewBox="0 0 317.89 356.56"><defs><style>.cls-1{fill:#330d10;}.cls-2{fill:#724c32;}.cls-3{fill:#885a44;}.cls-4{fill:#e6927f;}.cls-5{fill:#8a5235;}.cls-6{fill:#e06867;}.cls-7{fill:#f8dabd;}</style></defs><g id="Layer_2" data-name="Layer 2"><g id="Layer_1-2" data-name="Layer 1"><path class="cls-1" d="M159.72,0h4.13A133.14,133.14,0,0,1,297,133.14V294.27a62.29,62.29,0,0,1-62.29,62.29H82a62.29,62.29,0,0,1-62.29-62.29V140a140,140,0,0,1,140-140Z"/><rect class="cls-2" y="164.81" width="317.89" height="53.09" rx="26.15"/><rect class="cls-3" x="11.75" y="178.3" width="294.76" height="26.11" rx="12.86"/><path class="cls-2" d="M63.39,89.54H254.87a34.21,34.21,0,0,1,34.21,34.21v90.38A128.18,128.18,0,0,1,160.9,342.3H157A127.84,127.84,0,0,1,29.18,214.46V123.74A34.21,34.21,0,0,1,63.39,89.54Z"/><rect x="79.89" y="165.6" width="24.56" height="52.3" rx="12.1"/><path class="cls-4" d="M121.8,255.43h79.74a12.26,12.26,0,0,1,12.26,12.26v1.19a33,33,0,0,1-33,33H143.48A33.47,33.47,0,0,1,110,268.42v-1.19a11.8,11.8,0,0,1,11.8-11.8Z"/><ellipse class="cls-5" cx="161.51" cy="234.14" rx="17.43" ry="7.53"/><rect x="216.18" y="165.6" width="24.56" height="52.3" rx="12.1"/><path class="cls-1" d="M162.87,47.2h50.42a79.34,79.34,0,0,1,79.34,79.34v38.52a.71.71,0,0,1-.71.71H184.86a69.4,69.4,0,0,1-69.4-69.4V94.6a47.4,47.4,0,0,1,47.4-47.4Z" transform="translate(408.08 212.96) rotate(180)"/><rect class="cls-1" x="80.69" y="149.76" width="23.77" height="12.68" rx="6.24"/><path class="cls-1" d="M10.08,50.54h48a91.74,91.74,0,0,1,91.74,91.74v1.39a0,0,0,0,1,0,0h-48A91.74,91.74,0,0,1,10.08,51.93V50.54A0,0,0,0,1,10.08,50.54Z" transform="translate(-31.97 154.52) rotate(-77.7)"/><ellipse class="cls-3" cx="255.65" cy="234.11" rx="15.17" ry="6.34"/><ellipse class="cls-3" cx="64.77" cy="233.76" rx="15.17" ry="6.34"/><path class="cls-6" d="M135.92,301.54c0-7.83,11.51-14.18,25.7-14.18s25.69,6.35,25.69,14.18"/><path class="cls-7" d="M184.12,273.43h-42a18,18,0,0,1-18-18h78A18,18,0,0,1,184.12,273.43Z"/></g></g></svg>