<svg xmlns="http://www.w3.org/2000/svg" viewBox="0 0 369.96 488.8"><defs><style>.cls-1{fill:#f5bf9a;}.cls-2{fill:#e5917f;}.cls-3{fill:#f7cbac;}.cls-4{fill:#f7d9bc;}</style></defs><g id="Layer_2" data-name="Layer 2"><g id="Layer_1-2" data-name="Layer 1"><circle class="cls-1" cx="191.34" cy="340.67" r="148.13"/><rect class="cls-1" x="28.31" y="66.93" width="84.54" height="234.12" rx="42.27" transform="matrix(0.93, -0.38, 0.38, 0.93, -64.36, 40.38)"/><rect class="cls-1" x="140.02" width="84.54" height="234.12" rx="42.27"/><rect class="cls-1" x="257.51" y="47.01" width="84.54" height="234.12" rx="42.27" transform="translate(82.85 -99.99) rotate(21.9)"/><rect class="cls-2" x="226.61" y="241.46" width="75.45" height="198.41" rx="37.73" transform="translate(67.42 724.27) rotate(-115.02)"/><rect class="cls-3" x="98.44" y="245.26" width="75.45" height="198.41" rx="37.73" transform="translate(418.99 105.3) rotate(71.35)"/><path class="cls-4" d="M198.69,343.65c-8.45-.47-13.34-14.48-14-16.39-.53-1.53-5.67-16.74,1-22.23,6.89-5.7,25.8-.37,29.62,12.43C218.91,329.63,207.58,344.16,198.69,343.65Z"/></g></g></svg>