<svg xmlns="http://www.w3.org/2000/svg" viewBox="0 0 338.73 502.04"><defs><style>.cls-1{fill:#f5bf9a;}.cls-2{fill:#e5917f;}.cls-3{fill:#f7cbac;}.cls-4{fill:#f7d9bc;}.cls-5{fill:#e6927f;}</style></defs><g id="Layer_2" data-name="Layer 2"><g id="Layer_1-2" data-name="Layer 1"><circle class="cls-1" cx="163.41" cy="348.21" r="153.83"/><rect class="cls-1" x="231.78" y="48.63" width="87.8" height="243.13" rx="43.9" transform="translate(500.91 403.08) rotate(-165.73)"/><rect class="cls-1" x="127.92" width="87.8" height="243.13" rx="43.9" transform="translate(343.63 243.13) rotate(-180)"/><rect class="cls-1" x="18.05" y="48.82" width="87.8" height="243.13" rx="43.9" transform="translate(161.77 321.74) rotate(166.57)"/><rect class="cls-2" x="67.82" y="230.38" width="75.21" height="197.78" rx="37.61" transform="translate(-237.53 285.56) rotate(-64.98)"/><rect class="cls-3" x="181.54" y="249.12" width="78.36" height="206.05" rx="39.18" transform="translate(616.4 225.02) rotate(104.27)"/><path class="cls-4" d="M158.81,356.53c8.64-1.67,11.71-16.77,12.13-18.83.34-1.65,3.5-18-4.1-22.74-7.89-4.91-26.6,3.22-28.75,16.92C136.05,344.91,149.74,358.28,158.81,356.53Z"/><rect class="cls-5" x="8.15" y="266.76" width="84.28" height="142.84" rx="42.14" transform="translate(100.57 676.35) rotate(180)"/></g></g></svg>