<svg xmlns="http://www.w3.org/2000/svg" viewBox="0 0 780.98 307.01"><defs><style>.cls-1{font-size:217.22px;fill:#b83b5e;font-family:UniformRndCond-Black, Uniform Rounded;font-weight:800;}.cls-2{fill:#f0895c;}.cls-3{fill:#f8ec69;letter-spacing:-0.02em;}.cls-4{fill:#58595b;}.cls-5{fill:#f5bf9a;}.cls-6{fill:#e5917f;}.cls-7{fill:#f7cbac;}.cls-8{fill:#f7d9bc;}.cls-9{fill:#e6927f;}</style></defs><g id="Layer_2" data-name="Layer 2"><g id="Layer_1-2" data-name="Layer 1"><text class="cls-1" transform="translate(190.25 255.96)">O<tspan class="cls-2" x="123.81" y="0">R</tspan><tspan class="cls-3" x="243.28" y="0">D</tspan><tspan class="cls-4" x="362.75" y="0">.IT</tspan></text><text/><circle class="cls-5" cx="91.37" cy="188.94" r="81.26"/><rect class="cls-5" x="71.62" width="46.38" height="128.43" rx="23.19" transform="translate(189.62 128.43) rotate(-180)"/><rect class="cls-5" x="12.59" y="29.79" width="46.38" height="128.43" rx="23.19" transform="translate(98.65 172.51) rotate(162.14)"/><rect class="cls-6" x="40.88" y="126.69" width="39.73" height="104.48" rx="19.87" transform="translate(-127.09 158.31) rotate(-64.98)"/><rect class="cls-7" x="100.95" y="136.6" width="41.39" height="108.84" rx="20.7" transform="translate(336.74 120.2) rotate(104.27)"/><path class="cls-8" d="M88.94,193.33c4.56-.88,6.19-8.86,6.41-10,.18-.87,1.85-9.51-2.17-12s-14.05,1.7-15.18,8.94C76.92,187.19,84.15,194.26,88.94,193.33Z"/><rect class="cls-9" x="9.36" y="145.91" width="44.52" height="75.45" rx="22.26" transform="translate(63.23 367.27) rotate(-180)"/><path class="cls-5" d="M133.66,161.12h0a23.19,23.19,0,0,1-15.27-29l24.33-78.37a23.19,23.19,0,0,1,29-15.27h0c12.23,3.8,19.07,9.79,15.27,22l-24.32,85.37A23.19,23.19,0,0,1,133.66,161.12Z"/></g></g></svg>