<svg width="141" height="150" viewBox="0 0 141 150" fill="none" xmlns="http://www.w3.org/2000/svg">
<g clip-path="url(#clip0_1039_1285)">
<path d="M95.0919 143.235L94.996 5.52476C95.0003 4.06845 94.4366 2.66933 93.4283 1.63382C92.42 0.598315 91.0493 0.0108174 89.6163 0L5.37592 0C3.943 0.0108174 2.5731 0.598315 1.56624 1.63382C0.559379 2.66933 -0.0023761 4.06845 0.0040047 5.52476L0.100328 143.828C0.090488 145.277 0.643537 146.673 1.63942 147.711C2.6353 148.749 3.99363 149.346 5.41955 149.373H89.1365C90.7245 149.352 92.2397 148.695 93.3543 147.547C94.4689 146.398 95.0931 144.849 95.0919 143.235Z" fill="#B83B5E"/>
<path d="M89.7166 143.398L89.6244 11.029C89.6948 9.48455 89.1631 7.97375 88.1445 6.82449C87.126 5.67524 85.7029 4.98026 84.184 4.89038H19.2319C17.7168 4.98542 16.2997 5.68264 15.287 6.83133C14.2744 7.98001 13.7474 9.48789 13.8202 11.029L13.9126 143.746C13.837 145.295 14.3696 146.812 15.3935 147.963C16.4174 149.114 17.8488 149.805 19.3732 149.885L84.3049 149.537C85.8181 149.437 87.2321 148.738 88.2437 147.59C89.2554 146.443 89.7841 144.938 89.7166 143.398Z" fill="#E6E7E8"/>
<path d="M6.3291 10.6871C6.3297 11.5492 6.48335 12.4028 6.78127 13.1992C7.0792 13.9956 7.51556 14.7192 8.06546 15.3288C9.17601 16.5598 10.6816 17.2514 12.2509 17.2514L80.8515 17.2514L80.8469 10.6871L6.3291 10.6871Z" fill="#E6E7E8"/>
<path d="M12.053 12.9109C12.0529 12.6803 12.2397 12.4933 12.4704 12.4933H79.3453C80.4253 12.4933 81.4614 12.9226 82.2256 13.6867C82.9898 14.4509 83.4195 15.4873 83.4203 16.568L83.5111 147.019C83.5113 147.244 83.3291 147.426 83.1042 147.426C82.8793 147.426 82.6969 147.244 82.6967 147.019L82.6064 17.4033C82.6057 16.3226 82.1759 15.2862 81.4117 14.522C80.6475 13.7579 79.6114 13.3286 78.5314 13.3286H12.471C12.2403 13.3286 12.0532 13.1416 12.053 12.9109Z" fill="#CCCCCC"/>
<path d="M11.8724 4.84912H19.2316L19.2359 10.9877H6.31678C6.35777 9.34296 6.96101 7.78166 7.99836 6.63545C9.03571 5.48923 10.4254 4.84842 11.8724 4.84912Z" fill="#E6E7E8"/>
<path d="M12.0918 17.2189L74.7486 17.2189C76.3506 17.2189 77.8874 17.8649 79.0209 19.0147C80.1545 20.1646 80.7919 21.7242 80.7931 23.3504L80.8766 143.242C80.8777 144.868 80.2424 146.427 79.1105 147.577C77.9785 148.727 76.4426 149.373 74.8407 149.373H12.1838L12.0918 17.2189Z" fill="#FF618D"/>
<path d="M68.5358 42.4789H24.1982C23.646 42.4789 23.1986 42.9266 23.1989 43.4789L23.2097 58.9702C23.2101 59.5225 23.6581 59.9702 24.2104 59.9702H68.5479C69.1002 59.9702 69.5476 59.5225 69.5472 58.9702L69.5365 43.4789C69.5361 42.9266 69.088 42.4789 68.5358 42.4789Z" fill="#B83B5E"/>
<path d="M27.6548 52.7739L27.6538 51.3439H28.8858C29.3588 51.3439 29.6886 51.0249 29.6883 50.5409C29.6879 50.0679 29.3577 49.7489 28.8847 49.7489H27.6527L27.6518 48.4839H29.2798C29.7748 48.4839 30.1266 48.1209 30.1262 47.6259C30.1259 47.1309 29.7737 46.7789 29.2787 46.7789H26.6937C26.1217 46.7789 25.7259 47.1749 25.7263 47.7359L25.7303 53.5109C25.7307 54.0829 26.127 54.4789 26.699 54.4789H29.339C29.834 54.4789 30.1858 54.1159 30.1854 53.6209C30.1851 53.1259 29.8328 52.7739 29.3378 52.7739H27.6548ZM30.4575 53.7639C30.4578 54.2149 30.7661 54.5339 31.2391 54.5339C31.5471 54.5339 31.7999 54.3799 31.9977 54.0719L32.8218 52.8069L33.6147 54.0719C33.8129 54.3799 34.0771 54.5339 34.4181 54.5339C34.9021 54.5339 35.2318 54.1929 35.2315 53.6979C35.2313 53.4999 35.1542 53.2909 35.011 53.0819L33.8989 51.4979L34.9649 50.0239C35.0858 49.8589 35.1517 49.6719 35.1515 49.4849C35.1512 49.0119 34.821 48.7039 34.37 48.7039C34.073 48.7039 33.8201 48.8469 33.6333 49.1329L32.8971 50.2769L32.2143 49.1769C32.0161 48.8579 31.752 48.7039 31.433 48.7039C30.938 48.7039 30.5972 49.0449 30.5976 49.5399C30.5977 49.7489 30.6638 49.9359 30.796 50.1229L31.82 51.5749L30.6551 53.1919C30.5232 53.3789 30.4574 53.5769 30.4575 53.7639ZM35.5642 52.2459C35.5652 53.7089 36.5338 54.5889 38.0188 54.5889C38.9098 54.5889 39.5806 54.2919 40.0092 53.6979C40.152 53.5219 40.2179 53.3239 40.2177 53.0929C40.2174 52.6199 39.8872 52.3009 39.4472 52.3009C39.2492 52.3009 39.0513 52.3889 38.8534 52.5539C38.8204 52.5869 38.5895 52.8069 38.5126 52.8619C38.4356 52.9059 38.2267 52.9939 38.0397 52.9939C37.6437 52.9939 37.3795 52.7079 37.3791 52.2239L37.3789 51.9489H39.5789C40.1179 51.9489 40.4587 51.6079 40.4583 51.0689L40.4583 50.9919C40.4578 50.2549 40.2374 49.6829 39.7971 49.2759C39.3568 48.8579 38.7736 48.6489 38.0586 48.6489C37.3216 48.6489 36.7168 48.8689 36.2551 49.2979C35.7934 49.7269 35.5628 50.2989 35.5633 51.0359L35.5642 52.2459ZM37.3781 50.7939C37.3778 50.3099 37.6416 50.0239 38.0376 50.0239C38.4336 50.0239 38.6978 50.3099 38.6981 50.7939L38.6982 50.8489H37.3782L37.3781 50.7939ZM41.1751 53.6209C41.1755 54.1599 41.5497 54.5339 42.0887 54.5339C42.6167 54.5339 42.9905 54.1599 42.9901 53.6209L42.9885 51.2559C42.9881 50.7829 43.2739 50.5189 43.714 50.5189C44.33 50.5189 44.7037 50.1229 44.7033 49.5839C44.7029 49.0449 44.3616 48.6489 43.8006 48.6489C43.3166 48.6489 42.8879 49.0449 42.7673 49.5729L42.7672 49.4959C42.7669 49.0449 42.4257 48.7039 41.9747 48.7039C41.5017 48.7039 41.1719 49.0229 41.1722 49.4959L41.1751 53.6209ZM44.9314 52.3009C44.9319 53.0159 45.1523 53.5769 45.5816 53.9839C46.0218 54.3909 46.594 54.5889 47.298 54.5889C47.958 54.5889 48.4968 54.4129 48.9146 54.0609C49.3434 53.6979 49.5521 53.2689 49.5517 52.7629C49.5514 52.2679 49.2211 51.9489 48.7261 51.9489C48.3191 51.9489 48.0553 52.1469 47.9236 52.5539C47.8248 52.8509 47.6379 52.9939 47.3519 52.9939C46.9889 52.9939 46.7467 52.7299 46.7464 52.2789L46.7454 50.9589C46.7451 50.5079 46.9869 50.2439 47.3499 50.2439C47.6359 50.2439 47.823 50.3869 47.9112 50.6619C48.0325 51.0469 48.3076 51.2339 48.7366 51.2339C49.2206 51.2339 49.5504 50.8709 49.55 50.3429C49.5497 49.8809 49.3404 49.4849 48.9332 49.1549C48.526 48.8139 47.9978 48.6489 47.3378 48.6489C46.6338 48.6489 46.051 48.8579 45.6003 49.2869C45.1496 49.7049 44.93 50.2659 44.9305 50.9809L44.9314 52.3009ZM51.3028 48.3079C51.9298 48.3079 52.3694 47.8679 52.369 47.2409C52.3686 46.6249 51.9173 46.1739 51.3013 46.1739C50.9933 46.1739 50.7403 46.2729 50.5315 46.4819C50.3336 46.6799 50.2348 46.9329 50.235 47.2409C50.2352 47.5489 50.3344 47.8019 50.5325 48.0109C50.7417 48.2089 50.9948 48.3079 51.3028 48.3079ZM52.2277 49.6279C52.2273 49.0889 51.842 48.7039 51.303 48.7039C50.764 48.7039 50.3793 49.0889 50.3797 49.6279L50.3824 53.6099C50.3828 54.1489 50.7681 54.5339 51.3071 54.5339C51.8461 54.5339 52.2308 54.1489 52.2304 53.6099L52.2277 49.6279ZM52.8882 53.2799C52.8883 53.5439 53.0425 53.7969 53.3507 54.0279C53.8349 54.4019 54.4181 54.5889 55.0891 54.5889C55.7161 54.5889 56.222 54.4349 56.6287 54.1159C57.0355 53.7969 57.2332 53.3569 57.2328 52.7959C57.2322 51.9269 56.7038 51.3659 55.6585 50.9149C55.1634 50.7059 54.9212 50.4969 54.9211 50.3099C54.921 50.1559 55.0199 50.0789 55.2289 50.0789C55.4489 50.0789 55.669 50.1669 55.8891 50.3429C56.0542 50.4639 56.2192 50.5299 56.4062 50.5299C56.8132 50.5299 57.121 50.2439 57.1207 49.8149C57.1205 49.5399 56.9554 49.2979 56.6362 49.0669C56.251 48.7919 55.7449 48.6489 55.1399 48.6489C54.5569 48.6489 54.073 48.8029 53.6883 49.1219C53.3035 49.4409 53.1058 49.8479 53.1061 50.3539C53.1067 51.1679 53.5911 51.7949 54.5594 52.2239C55.2086 52.5209 55.4177 52.6639 55.4179 52.8729C55.418 53.0599 55.2971 53.1589 55.0441 53.1589C54.8131 53.1589 54.549 53.0379 54.2298 52.7959C54.0317 52.6309 53.8336 52.5539 53.6246 52.5539C53.1846 52.5539 52.8879 52.8509 52.8882 53.2799ZM57.779 52.2459C57.78 53.7089 58.7486 54.5889 60.2336 54.5889C61.1246 54.5889 61.7954 54.2919 62.224 53.6979C62.3669 53.5219 62.4327 53.3239 62.4326 53.0929C62.4323 52.6199 62.102 52.3009 61.662 52.3009C61.464 52.3009 61.2661 52.3889 61.0682 52.5539C61.0352 52.5869 60.8044 52.8069 60.7274 52.8619C60.6505 52.9059 60.4415 52.9939 60.2545 52.9939C59.8585 52.9939 59.5943 52.7079 59.594 52.2239L59.5938 51.9489H61.7938C62.3328 51.9489 62.6736 51.6079 62.6732 51.0689L62.6731 50.9919C62.6726 50.2549 62.4522 49.6829 62.0119 49.2759C61.5716 48.8579 60.9885 48.6489 60.2735 48.6489C59.5365 48.6489 58.9316 48.8689 58.4699 49.2979C58.0082 49.7269 57.7776 50.2989 57.7782 51.0359L57.779 52.2459ZM59.593 50.7939C59.5926 50.3099 59.8564 50.0239 60.2524 50.0239C60.6484 50.0239 60.9126 50.3099 60.913 50.7939L60.913 50.8489H59.593L59.593 50.7939ZM63.0073 53.2799C63.0075 53.5439 63.1617 53.7969 63.4698 54.0279C63.9541 54.4019 64.5372 54.5889 65.2082 54.5889C65.8352 54.5889 66.3411 54.4349 66.7479 54.1159C67.1547 53.7969 67.3523 53.3569 67.352 52.7959C67.3514 51.9269 66.823 51.3659 65.7776 50.9149C65.2825 50.7059 65.0404 50.4969 65.0402 50.3099C65.0401 50.1559 65.1391 50.0789 65.3481 50.0789C65.5681 50.0789 65.7881 50.1669 66.0082 50.3429C66.1733 50.4639 66.3384 50.5299 66.5254 50.5299C66.9324 50.5299 67.2402 50.2439 67.2399 49.8149C67.2397 49.5399 67.0745 49.2979 66.7554 49.0669C66.3702 48.7919 65.8641 48.6489 65.2591 48.6489C64.6761 48.6489 64.1922 48.8029 63.8074 49.1219C63.4226 49.4409 63.2249 49.8479 63.2253 50.3539C63.2258 51.1679 63.7103 51.7949 64.6786 52.2239C65.3278 52.5209 65.5369 52.6639 65.537 52.8729C65.5371 53.0599 65.4162 53.1589 65.1632 53.1589C64.9322 53.1589 64.6681 53.0379 64.349 52.7959C64.1508 52.6309 63.9528 52.5539 63.7438 52.5539C63.3038 52.5539 63.007 52.8509 63.0073 53.2799Z" fill="#F2F2F2"/>
<path d="M12.0784 8.88681C12.0783 8.66351 12.2591 8.48249 12.4824 8.48249L83.6616 8.48249C84.2374 8.47713 84.8086 8.58522 85.342 8.80048C85.8754 9.01574 86.3603 9.33388 86.7687 9.73641C87.1771 10.1389 87.5007 10.6178 87.7208 11.1453C87.9409 11.6727 88.053 12.2381 88.0507 12.8087L88.1441 146.999C88.1443 147.236 87.9526 147.427 87.716 147.427C87.4794 147.427 87.2875 147.236 87.2873 146.999L87.1944 13.5365C87.1774 12.398 86.7062 11.3121 85.8836 10.5165C85.0611 9.72093 83.9543 9.28033 82.8054 9.29113L12.483 9.29113C12.2597 9.29113 12.0786 9.11011 12.0784 8.88681Z" fill="#CCCCCC"/>
</g>
<path d="M121.929 122.787L114.06 134.187L112.225 127.274L110.391 120.362L115.485 124.189L121.929 122.787Z" fill="#181818"/>
<path d="M110.391 120.362L115.485 124.189L121.929 122.787L128.015 113.474L121.7 114.733L117.68 111.861L112.563 112.997L107.457 109.568L110.391 120.362Z" fill="#F6C09B"/>
<path d="M117.68 111.861L112.563 112.997L125.937 31.2598L135.074 32.9959C132.621 47.9881 121.967 113.098 121.7 114.733L117.68 111.861Z" fill="#FF618D"/>
<path d="M121.7 114.733L128.015 113.474L140.999 34.1216L135.074 32.9959L121.7 114.733Z" fill="#B83B5E"/>
<path d="M107.457 109.568L112.563 112.997L125.937 31.2598L120.44 30.2155L107.457 109.568Z" fill="#B83B5E"/>
<defs>
<clipPath id="clip0_1039_1285">
<rect width="94.9919" height="149.926" fill="white" transform="matrix(1 0 0.000696461 1 0 0)"/>
</clipPath>
</defs>
</svg>
