<svg width="488" height="457" viewBox="0 0 488 457" fill="none" xmlns="http://www.w3.org/2000/svg">
<path d="M433.869 273.693H446.042C451.866 273.693 456.562 268.965 456.562 263.102V261.665H433.869V273.693Z" fill="#330D10"/>
<path d="M386.326 193.81H24.1406V103.678C24.1406 46.5272 70.1652 0.194092 126.935 0.194092H350.182C406.952 0.194092 452.977 46.5272 452.977 103.678V126.75C452.939 163.778 423.108 193.81 386.326 193.81Z" fill="#330D10"/>
<path d="M444.197 267.603H35.4995C16.0377 267.603 0.257812 251.717 0.257812 232.125V222.518C0.257812 202.925 16.0377 187.04 35.4995 187.04H444.197C463.659 187.04 479.439 202.925 479.439 222.518V232.125C479.439 251.717 463.659 267.603 444.197 267.603Z" fill="#724C32"/>
<path d="M444.938 247.141H35.2635C25.6829 247.141 17.9434 239.312 17.9434 229.705V224.977C17.9434 215.332 25.7205 207.541 35.2635 207.541H444.938C454.519 207.541 462.258 215.37 462.258 224.977V229.705C462.296 239.312 454.519 247.141 444.938 247.141Z" fill="#885A44"/>
<path d="M263.209 456.381H216.545C121.378 456.381 44.207 378.692 44.207 282.887V119.227C44.207 93.5827 64.8336 72.8179 90.3068 72.8179H389.86C415.334 72.8179 435.96 93.5827 435.96 119.227V282.433C435.998 378.503 358.639 456.381 263.209 456.381Z" fill="#724C32"/>
<path d="M141.401 267.605H137.005C127.988 267.605 120.699 260.267 120.699 251.19V204.668C120.699 195.59 127.988 188.252 137.005 188.252H141.401C150.418 188.252 157.707 195.59 157.707 204.668V251.19C157.707 260.267 150.381 267.605 141.401 267.605Z" fill="black"/>
<path d="M278.003 395.066H211.164C186.254 395.066 166.041 374.718 166.041 349.641V341.32C166.041 332.469 173.18 325.321 181.934 325.321H305.993C315.123 325.321 322.525 332.772 322.525 341.963V350.284C322.525 375.02 302.612 395.066 278.003 395.066Z" fill="#E6927F"/>
<path d="M268.128 349.374H221.652C204.783 349.374 191.145 335.607 191.145 318.662V314.501H298.635V318.662C298.635 335.607 284.997 349.374 268.128 349.374Z" fill="#F8DABD"/>
<path d="M244.865 411.895C263.997 411.895 279.506 403.276 279.506 392.643C279.506 382.011 263.997 373.391 244.865 373.391C225.734 373.391 210.225 382.011 210.225 392.643C210.225 403.276 225.734 411.895 244.865 411.895Z" fill="#E06867"/>
<path d="M243.712 303.686C258.216 303.686 269.974 298.572 269.974 292.263C269.974 285.955 258.216 280.841 243.712 280.841C229.207 280.841 217.449 285.955 217.449 292.263C217.449 298.572 229.207 303.686 243.712 303.686Z" fill="#8A5235"/>
<path d="M346.842 267.605H342.446C333.429 267.605 326.141 260.267 326.141 251.19V204.668C326.141 195.59 333.429 188.252 342.446 188.252H346.842C355.859 188.252 363.148 195.59 363.148 204.668V251.19C363.148 260.267 355.859 267.605 346.842 267.605Z" fill="black"/>
<path d="M385.617 301.837C398.254 301.837 408.498 297.535 408.498 292.23C408.498 286.924 398.254 282.623 385.617 282.623C372.98 282.623 362.736 286.924 362.736 292.23C362.736 297.535 372.98 301.837 385.617 301.837Z" fill="#885A44"/>
<path d="M97.8731 301.305C110.51 301.305 120.754 297.004 120.754 291.698C120.754 286.393 110.51 282.091 97.8731 282.091C85.2364 282.091 74.9922 286.393 74.9922 291.698C74.9922 297.004 85.2364 301.305 97.8731 301.305Z" fill="#885A44"/>
<path d="M148.473 179.366H130.402C125.179 179.366 120.934 175.092 120.934 169.835V167.263C120.934 162.005 125.179 157.731 130.402 157.731H148.473C153.695 157.731 157.941 162.005 157.941 167.263V169.835C157.941 175.13 153.695 179.366 148.473 179.366Z" fill="#260602"/>
<path d="M227.475 156.519H53.8971C41.4236 156.519 31.2793 146.345 31.2793 133.75V110.716C31.2793 78.8685 56.9027 53.0732 88.5375 53.0732H317.946V65.4035C317.984 115.746 277.482 156.519 227.475 156.519Z" fill="#330D10"/>
<path d="M341.625 187.758H455.39C473.387 187.758 487.964 173.082 487.964 154.965V128.451C487.964 90.1743 457.119 59.1216 419.097 59.1216H246.871C241.949 59.1216 237.967 63.1308 237.967 68.0856V83.4039C237.967 141.046 284.367 187.758 341.625 187.758Z" fill="#330D10"/>
</svg>
