<svg width="489" height="458" viewBox="0 0 489 458" fill="none" xmlns="http://www.w3.org/2000/svg">
<path d="M434.225 274.328H446.398C452.221 274.328 456.918 269.6 456.918 263.737V262.3H434.225V274.328Z" fill="#1E1512"/>
<path d="M47.2102 274.328H35.0373C29.2139 274.328 24.5176 269.6 24.5176 263.737V262.3H47.2102V274.328Z" fill="#1E1512"/>
<path d="M386.702 194.445H24.5176V104.313C24.5176 47.1625 70.5422 0.829346 127.312 0.829346H350.559C407.329 0.829346 453.353 47.1625 453.353 104.313V127.385C453.353 164.414 423.522 194.445 386.702 194.445Z" fill="#1E1512"/>
<path d="M444.553 268.238H35.8549C16.3931 268.238 0.613281 252.352 0.613281 232.76V223.153C0.613281 203.56 16.3931 187.675 35.8549 187.675H444.553C464.015 187.675 479.794 203.56 479.794 223.153V232.76C479.794 252.352 464.015 268.238 444.553 268.238Z" fill="#724C32"/>
<path d="M445.299 247.777H35.6621C26.0815 247.777 18.3418 239.948 18.3418 230.341V225.613C18.3418 215.968 26.1191 208.176 35.6621 208.176H445.337C454.917 208.176 462.657 216.006 462.657 225.613V230.341C462.657 239.948 454.88 247.777 445.299 247.777Z" fill="#885A44"/>
<path d="M263.564 457.011H216.901C121.733 457.011 44.5625 379.322 44.5625 283.517V119.857C44.5625 94.2125 65.1891 73.4478 90.6622 73.4478H390.216C415.689 73.4478 436.316 94.2125 436.316 119.857V283.063C436.353 379.133 358.994 457.011 263.564 457.011Z" fill="#724C32"/>
<path d="M141.776 268.235H137.38C128.363 268.235 121.074 260.897 121.074 251.82V205.298C121.074 196.22 128.363 188.882 137.38 188.882H141.776C150.793 188.882 158.082 196.22 158.082 205.298V251.82C158.082 260.86 150.755 268.235 141.776 268.235Z" fill="black"/>
<path d="M278.358 395.702H211.519C186.61 395.702 166.396 375.353 166.396 350.276V341.955C166.396 333.105 173.535 325.956 182.289 325.956H306.349C315.478 325.956 322.88 333.407 322.88 342.598V350.919C322.88 375.618 302.967 395.702 278.358 395.702Z" fill="#E6927F"/>
<path d="M268.483 350.009H222.008C205.138 350.009 191.5 336.242 191.5 319.297V315.137H298.991V319.297C298.991 336.242 285.352 350.009 268.483 350.009Z" fill="#F8DABD"/>
<path d="M245.264 412.531C264.395 412.531 279.904 403.911 279.904 393.279C279.904 382.646 264.395 374.027 245.264 374.027C226.132 374.027 210.623 382.646 210.623 393.279C210.623 403.911 226.132 412.531 245.264 412.531Z" fill="#E06867"/>
<path d="M244.067 304.321C258.571 304.321 270.329 299.207 270.329 292.899C270.329 286.59 258.571 281.476 244.067 281.476C229.563 281.476 217.805 286.59 217.805 292.899C217.805 299.207 229.563 304.321 244.067 304.321Z" fill="#8A5235"/>
<path d="M347.198 268.235H342.802C333.785 268.235 326.496 260.897 326.496 251.82V205.298C326.496 196.22 333.785 188.882 342.802 188.882H347.198C356.215 188.882 363.504 196.22 363.504 205.298V251.82C363.504 260.86 356.215 268.235 347.198 268.235Z" fill="black"/>
<path d="M385.973 302.429C398.61 302.429 408.854 298.128 408.854 292.822C408.854 287.516 398.61 283.215 385.973 283.215C373.336 283.215 363.092 287.516 363.092 292.822C363.092 298.128 373.336 302.429 385.973 302.429Z" fill="#885A44"/>
<path d="M98.2713 301.898C110.908 301.898 121.152 297.597 121.152 292.291C121.152 286.985 110.908 282.684 98.2713 282.684C85.6346 282.684 75.3906 286.985 75.3906 292.291C75.3906 297.597 85.6346 301.898 98.2713 301.898Z" fill="#885A44"/>
<path d="M148.829 179.996H130.757C125.535 179.996 121.289 175.722 121.289 170.465V167.893C121.289 162.635 125.535 158.361 130.757 158.361H148.829C154.051 158.361 158.297 162.635 158.297 167.893V170.465C158.297 175.722 154.051 179.996 148.829 179.996Z" fill="#260602"/>
<path d="M227.874 157.149H54.2955C41.8219 157.149 31.6777 146.975 31.6777 134.38V111.345C31.6777 79.4984 57.3012 53.7031 88.936 53.7031H318.345V66.0334C318.345 116.376 277.843 157.149 227.874 157.149Z" fill="#1E1512"/>
<path d="M341.979 188.393H455.744C473.74 188.393 488.318 173.718 488.318 155.6V129.086C488.318 90.8095 457.472 59.7568 419.45 59.7568H247.225C242.303 59.7568 238.32 63.7661 238.32 68.7209V84.0392C238.32 141.681 284.72 188.393 341.979 188.393Z" fill="#1E1512"/>
</svg>
