<svg width="489" height="458" viewBox="0 0 489 458" fill="none" xmlns="http://www.w3.org/2000/svg">
<path d="M434.309 278.67H446.481C452.305 278.67 457.001 273.942 457.001 268.08V266.643H434.309V278.67Z" fill="#AB5621"/>
<path d="M47.316 278.67H35.143C29.3194 278.67 24.623 273.942 24.623 268.08V266.643H47.316V278.67Z" fill="#AB5621"/>
<path d="M386.808 194.51H24.623V104.378C24.623 47.2272 70.6476 0.894043 127.417 0.894043H350.665C407.434 0.894043 453.459 47.2272 453.459 104.378V127.45C453.421 164.479 423.59 194.51 386.808 194.51Z" fill="#AB5621"/>
<path d="M444.674 268.303H35.9389C16.4771 268.303 0.697266 252.417 0.697266 232.825V223.218C0.697266 203.625 16.4771 187.74 35.9389 187.74H444.637C464.099 187.74 479.879 203.625 479.879 223.218V232.825C479.916 252.417 464.136 268.303 444.674 268.303Z" fill="#F6C09B"/>
<path d="M445.421 247.841H35.746C26.1654 247.841 18.4258 240.012 18.4258 230.405V225.677C18.4258 216.032 26.203 208.241 35.746 208.241H445.421C455.001 208.241 462.741 216.07 462.741 225.677V230.405C462.741 240.012 455.001 247.841 445.421 247.841Z" fill="#E6927F"/>
<path d="M263.691 457.081H217.028C121.86 457.081 44.6895 379.392 44.6895 283.587V119.926C44.6895 94.2824 65.316 73.5176 90.7891 73.5176H390.343C415.816 73.5176 436.443 94.2824 436.443 119.926V283.133C436.48 379.203 359.121 457.081 263.691 457.081Z" fill="#F6C09B"/>
<path d="M141.838 268.305H137.443C128.425 268.305 121.137 260.968 121.137 251.89V205.368C121.137 196.29 128.425 188.953 137.443 188.953H141.838C150.855 188.953 158.144 196.29 158.144 205.368V251.89C158.144 260.968 150.855 268.305 141.838 268.305Z" fill="#666666"/>
<path d="M278.485 395.767H211.646C186.737 395.767 166.523 375.418 166.523 350.341V342.02C166.523 333.169 173.662 326.021 182.416 326.021H306.475C315.605 326.021 323.007 333.472 323.007 342.663V350.984C323.007 375.721 303.056 395.767 278.485 395.767Z" fill="#E6927F"/>
<path d="M268.61 350.074H222.135C205.265 350.074 191.627 336.307 191.627 319.362V315.201H299.118V319.362C299.118 336.307 285.442 350.074 268.61 350.074Z" fill="#F8DABD"/>
<path d="M245.347 412.595C264.479 412.595 279.988 403.976 279.988 393.343C279.988 382.711 264.479 374.091 245.347 374.091C226.216 374.091 210.707 382.711 210.707 393.343C210.707 403.976 226.216 412.595 245.347 412.595Z" fill="#E06867"/>
<path d="M244.151 304.386C258.655 304.386 270.413 299.271 270.413 292.963C270.413 286.655 258.655 281.541 244.151 281.541C229.647 281.541 217.889 286.655 217.889 292.963C217.889 299.271 229.647 304.386 244.151 304.386Z" fill="#E6927F"/>
<path d="M347.282 268.305H342.886C333.869 268.305 326.58 260.968 326.58 251.89V205.368C326.58 196.29 333.869 188.953 342.886 188.953H347.282C356.299 188.953 363.588 196.29 363.588 205.368V251.89C363.625 260.968 356.299 268.305 347.282 268.305Z" fill="#666666"/>
<path d="M386.1 302.536C398.736 302.536 408.981 298.235 408.981 292.929C408.981 287.623 398.736 283.322 386.1 283.322C373.463 283.322 363.219 287.623 363.219 292.929C363.219 298.235 373.463 302.536 386.1 302.536Z" fill="#F6AC9B"/>
<path d="M98.3339 302.005C110.971 302.005 121.215 297.704 121.215 292.398C121.215 287.092 110.971 282.791 98.3339 282.791C85.6972 282.791 75.4531 287.092 75.4531 292.398C75.4531 297.704 85.6972 302.005 98.3339 302.005Z" fill="#F6AC9B"/>
<path d="M148.956 180.103H130.884C125.662 180.103 121.416 175.829 121.416 170.572V168C121.416 162.743 125.662 158.469 130.884 158.469H148.956C154.178 158.469 158.423 162.743 158.423 168V170.572C158.423 175.829 154.178 180.103 148.956 180.103Z" fill="#BB663A"/>
<path d="M227.958 157.219H54.3795C41.9059 157.219 31.7617 147.045 31.7617 134.45V111.416C31.7617 79.5688 57.3852 53.7734 89.02 53.7734H318.429V66.1038C318.466 116.446 277.927 157.219 227.958 157.219Z" fill="#AB5621"/>
<path d="M342.106 188.463H455.871C473.867 188.463 488.445 173.788 488.445 155.671V129.157C488.445 90.8798 457.599 59.8271 419.577 59.8271H247.352C242.43 59.8271 238.447 63.8364 238.447 68.7912V84.1095C238.447 141.752 284.847 188.463 342.106 188.463Z" fill="#AB5621"/>
</svg>
