<svg width="489" height="457" viewBox="0 0 489 457" fill="none" xmlns="http://www.w3.org/2000/svg">
<path d="M434.572 277.882H446.745C452.569 277.882 457.265 273.154 457.265 267.292V265.854H434.572V277.882Z" fill="#B89062"/>
<path d="M47.6011 277.882H35.4281C29.6046 277.882 24.9082 273.154 24.9082 267.292V265.854H47.6011V277.882Z" fill="#B89062"/>
<path d="M387.093 193.728H24.9082V103.595C24.9082 46.4448 70.9327 0.111572 127.703 0.111572H350.95C407.719 0.111572 453.744 46.4448 453.744 103.595V126.667C453.706 163.696 423.875 193.728 387.093 193.728Z" fill="#B89062"/>
<path d="M444.938 267.52H36.2025C16.7407 267.52 0.960938 251.634 0.960938 232.042V222.435C0.960938 202.843 16.7407 186.957 36.2025 186.957H444.9C464.362 186.957 480.142 202.843 480.142 222.435V232.042C480.18 251.634 464.4 267.52 444.938 267.52Z" fill="#F6C09B"/>
<path d="M445.686 247.059H36.0117C26.431 247.059 18.6914 239.23 18.6914 229.623V224.895C18.6914 215.25 26.4686 207.458 36.0117 207.458H445.686C455.267 207.458 463.006 215.288 463.006 224.895V229.623C463.006 239.23 455.267 247.059 445.686 247.059Z" fill="#E6927F"/>
<path d="M263.955 456.293H217.292C122.124 456.293 44.9531 378.604 44.9531 282.799V119.139C44.9531 93.4948 65.5796 72.73 91.0528 72.73H390.607C416.08 72.73 436.707 93.4948 436.707 119.139V282.345C436.744 378.415 359.385 456.293 263.955 456.293Z" fill="#F6C09B"/>
<path d="M142.124 267.523H137.728C128.711 267.523 121.422 260.185 121.422 251.107V204.585C121.422 195.508 128.711 188.17 137.728 188.17H142.124C151.141 188.17 158.429 195.508 158.429 204.585V251.107C158.429 260.185 151.141 267.523 142.124 267.523Z" fill="#666666"/>
<path d="M278.77 394.984H211.931C187.022 394.984 166.809 374.635 166.809 349.558V341.237C166.809 332.387 173.947 325.238 182.701 325.238H306.761C315.89 325.238 323.292 332.689 323.292 341.88V350.201C323.292 374.938 303.342 394.984 278.77 394.984Z" fill="#E6927F"/>
<path d="M268.895 349.292H222.42C205.55 349.292 191.912 335.524 191.912 318.579V314.419H299.403V318.579C299.403 335.524 285.727 349.292 268.895 349.292Z" fill="#F8DABD"/>
<path d="M245.633 411.813C264.764 411.813 280.273 403.193 280.273 392.561C280.273 381.928 264.764 373.309 245.633 373.309C226.501 373.309 210.992 381.928 210.992 392.561C210.992 403.193 226.501 411.813 245.633 411.813Z" fill="#E06867"/>
<path d="M244.436 303.603C258.94 303.603 270.698 298.489 270.698 292.181C270.698 285.872 258.94 280.758 244.436 280.758C229.932 280.758 218.174 285.872 218.174 292.181C218.174 298.489 229.932 303.603 244.436 303.603Z" fill="#E6927F"/>
<path d="M347.567 267.523H343.171C334.154 267.523 326.865 260.185 326.865 251.107V204.585C326.865 195.508 334.154 188.17 343.171 188.17H347.567C356.584 188.17 363.873 195.508 363.873 204.585V251.107C363.873 260.185 356.584 267.523 347.567 267.523Z" fill="#666666"/>
<path d="M386.363 301.749C399 301.749 409.244 297.448 409.244 292.142C409.244 286.836 399 282.535 386.363 282.535C373.727 282.535 363.482 286.836 363.482 292.142C363.482 297.448 373.727 301.749 386.363 301.749Z" fill="#F6AC9B"/>
<path d="M98.619 301.223C111.256 301.223 121.5 296.922 121.5 291.616C121.5 286.31 111.256 282.009 98.619 282.009C85.9823 282.009 75.7383 286.31 75.7383 291.616C75.7383 296.922 85.9823 301.223 98.619 301.223Z" fill="#F6AC9B"/>
<path d="M149.176 179.278H131.105C125.882 179.278 121.637 175.004 121.637 169.747V167.175C121.637 161.918 125.882 157.644 131.105 157.644H149.176C154.399 157.644 158.644 161.918 158.644 167.175V169.747C158.682 175.042 154.436 179.278 149.176 179.278Z" fill="#CBA67B"/>
<path d="M228.243 156.437H54.6646C42.191 156.437 32.0469 146.262 32.0469 133.667V110.633C32.0469 78.786 57.6703 52.9907 89.3051 52.9907H318.714V65.321C318.751 115.663 278.212 156.437 228.243 156.437Z" fill="#B89062"/>
<path d="M342.369 187.675H456.135C474.131 187.675 488.709 173 488.709 154.883V128.369C488.709 90.0917 457.863 59.0391 419.841 59.0391H247.615C242.693 59.0391 238.711 63.0483 238.711 68.0031V83.3214C238.711 140.964 285.111 187.675 342.369 187.675Z" fill="#B89062"/>
</svg>
