<svg width="451" height="426" viewBox="0 0 451 426" fill="none" xmlns="http://www.w3.org/2000/svg">
<path d="M42 260H30.7393C25.3646 260 21 254.885 21 248.554V247H42V260Z" fill="#333340"/>
<path d="M357.165 180H21V96.2019C21 43.0663 63.7166 0 116.393 0H323.607C376.296 0 419 43.0789 419 96.2019V117.64C419 152.088 391.323 180 357.165 180Z" fill="#333340"/>
<path d="M406.707 250H32.293C14.4608 250 0 234.813 0 216.085V206.915C0 188.187 14.4608 173 32.293 173H406.707C424.539 173 439 188.187 439 206.915V216.085C439 234.826 424.539 250 406.707 250Z" fill="#F6C09B"/>
<path d="M409.043 231H31.957C23.1471 231 16 223.899 16 215.145V210.855C16 202.101 23.1471 195 31.957 195H409.043C417.853 195 425 202.101 425 210.855V215.145C425 223.899 417.853 231 409.043 231Z" fill="#E6927F"/>
<path d="M242.895 426H199.668C111.491 426 40 352.896 40 262.729V108.691C40 84.566 59.1217 65 82.7272 65H360.273C383.866 65 403 84.5532 403 108.691V262.295C402.988 352.704 331.309 426 242.895 426Z" fill="#F6C09B"/>
<path d="M130.365 249.437H126.312C118.033 249.437 111.316 242.569 111.316 234.106V190.672C111.316 182.208 118.033 175.34 126.312 175.34H130.365C138.643 175.34 145.36 182.208 145.36 190.672V234.106C145.36 242.582 138.655 249.437 130.365 249.437Z" fill="#666666"/>
<path d="M246.611 327H203.389C187.715 327 175 313.598 175 297.048V293H275V297.048C275 313.585 262.285 327 246.611 327Z" fill="#F8DABD"/>
<path d="M225 387C242.121 387 256 378.493 256 368C256 357.507 242.121 349 225 349C207.879 349 194 357.507 194 368C194 378.493 207.879 387 225 387Z" fill="#E06867"/>
<path d="M254.595 368H193.944C171.325 368 153 349.623 153 326.968V319.466C153 311.473 159.459 305 167.435 305H280.002C288.284 305 295 311.73 295 320.03V327.532C294.988 349.881 276.908 368 254.595 368Z" fill="#E6927F"/>
<path d="M225 282C238.255 282 249 277.075 249 271C249 264.925 238.255 260 225 260C211.745 260 201 264.925 201 271C201 277.075 211.745 282 225 282Z" fill="#E6927F"/>
<path d="M319.261 249.437H315.208C306.93 249.437 300.213 242.569 300.213 234.106V190.672C300.213 182.208 306.93 175.34 315.208 175.34H319.261C327.54 175.34 334.257 182.208 334.257 190.672V234.106C334.257 242.582 327.54 249.437 319.261 249.437Z" fill="#666666"/>
<path d="M355 282C367.15 282 377 278.194 377 273.5C377 268.806 367.15 265 355 265C342.85 265 333 268.806 333 273.5C333 278.194 342.85 282 355 282Z" fill="#F6AC9B"/>
<path d="M90.5 279C102.374 279 112 275.866 112 272C112 268.134 102.374 265 90.5 265C78.6259 265 69 268.134 69 272C69 275.866 78.6259 279 90.5 279Z" fill="#F6AC9B"/>
<path d="M137.308 166H120.692C115.888 166 112 162.245 112 157.632V155.368C112 150.743 115.9 147 120.692 147H137.308C142.112 147 146 150.755 146 155.368V157.632C146.012 162.257 142.112 166 137.308 166Z" fill="#494969"/>
<path d="M209.348 147H48.8975C37.3584 147 28 137.046 28 124.772V102.292C28 71.2102 51.6888 46 80.9227 46H293V58.0219C293 107.157 255.542 147 209.348 147Z" fill="#333340"/>
<path d="M314.612 180H420.634C437.406 180 451 166.076 451 148.895V123.736C451 87.4319 422.268 58 386.826 58H226.317C221.731 58 218 61.8093 218 66.5194V81.0487C218 135.691 261.256 180 314.612 180Z" fill="#333340"/>
</svg>
