<svg width="528" height="486" viewBox="0 0 528 486" fill="none" xmlns="http://www.w3.org/2000/svg">
<g clip-path="url(#clip0_892_2479)">
<path d="M469.393 295.928H482.57C488.874 295.928 493.958 290.891 493.958 284.645V283.114H469.393V295.928Z" fill="#1E1512"/>
<path d="M50.4739 295.928H37.2963C30.9922 295.928 25.9082 290.891 25.9082 284.645V283.114H50.4739V295.928Z" fill="#1E1512"/>
<path d="M417.983 206.231H25.9082V110.248C25.9082 49.3616 75.6904 0 137.145 0H378.816C440.271 0 490.094 49.3616 490.094 110.248V134.828C490.094 174.277 457.801 206.231 417.983 206.231Z" fill="#1E1512"/>
<path d="M0 236.855C0 215.982 17.0821 199.058 38.1501 199.058H480.577C501.645 199.058 518.727 215.982 518.727 236.855V247.09C518.727 267.963 501.645 284.887 480.577 284.887H38.1501C17.0821 284.887 0 267.963 0 247.05" fill="#F6C09B"/>
<path d="M19.1562 239.434C19.1562 229.159 27.5753 220.858 37.9059 220.858H481.39C491.761 220.858 500.14 229.199 500.14 239.434V244.471C500.14 254.746 491.721 263.047 481.39 263.047H37.9466C27.5753 263.047 19.1969 254.706 19.1969 244.471" fill="#E6927F"/>
<path d="M284.702 486H234.188C131.167 486 47.627 403.234 47.627 301.166V126.809C47.627 99.4887 69.9557 77.3667 97.5311 77.3667H421.807C449.382 77.3667 471.711 99.4887 471.711 126.809V300.683C471.751 403.032 388.008 486 284.702 486Z" fill="#F6C09B"/>
<path d="M152.803 284.887H148.044C138.283 284.887 130.393 277.07 130.393 267.399V217.836C130.393 208.165 138.283 200.348 148.044 200.348H152.803C162.564 200.348 170.454 208.165 170.454 217.836V267.399C170.454 277.029 162.564 284.887 152.803 284.887Z" fill="#666666"/>
<path d="M289.989 371.965H239.678C221.416 371.965 206.652 357.297 206.652 339.245V334.812H323.014V339.245C323.055 357.338 308.25 371.965 289.989 371.965Z" fill="#F8DABD"/>
<path d="M264.855 438.613C285.565 438.613 302.354 429.43 302.354 418.103C302.354 406.775 285.565 397.592 264.855 397.592C244.144 397.592 227.355 406.775 227.355 418.103C227.355 429.43 244.144 438.613 264.855 438.613Z" fill="#E06867"/>
<path d="M300.727 420.641H228.372C201.407 420.641 179.525 398.962 179.525 372.247V363.382C179.525 353.953 187.253 346.337 196.73 346.337H331.027C340.911 346.337 348.923 354.275 348.923 364.067V372.932C348.882 399.285 327.326 420.641 300.727 420.641Z" fill="#E6927F"/>
<path d="M263.553 323.288C279.254 323.288 291.982 317.84 291.982 311.119C291.982 304.398 279.254 298.95 263.553 298.95C247.851 298.95 235.123 304.398 235.123 311.119C235.123 317.84 247.851 323.288 263.553 323.288Z" fill="#E6927F"/>
<path d="M375.197 284.887H370.439C360.677 284.887 352.787 277.07 352.787 267.399V217.836C352.787 208.165 360.677 200.348 370.439 200.348H375.197C384.958 200.348 392.849 208.165 392.849 217.836V267.399C392.849 277.029 384.958 284.887 375.197 284.887Z" fill="#666666"/>
<path d="M417.17 321.314C430.849 321.314 441.939 316.731 441.939 311.079C441.939 305.426 430.849 300.844 417.17 300.844C403.49 300.844 392.4 305.426 392.4 311.079C392.4 316.731 403.49 321.314 417.17 321.314Z" fill="#F6AC9B"/>
<path d="M105.707 320.75C119.386 320.75 130.476 316.167 130.476 310.515C130.476 304.862 119.386 300.28 105.707 300.28C92.027 300.28 80.9375 304.862 80.9375 310.515C80.9375 316.167 92.027 320.75 105.707 320.75Z" fill="#F6AC9B"/>
<path d="M160.449 190.878H140.886C135.233 190.878 130.637 186.325 130.637 180.724V177.984C130.637 172.383 135.233 167.83 140.886 167.83H160.449C166.102 167.83 170.698 172.383 170.698 177.984V180.724C170.698 186.325 166.102 190.878 160.449 190.878Z" fill="#260602"/>
<path d="M246.022 166.54H58.1191C44.6161 166.54 33.6348 155.7 33.6348 142.282V117.742C33.6348 83.8138 61.3729 56.3325 95.6184 56.3325H343.96V69.4687C343.96 123.102 300.116 166.54 246.022 166.54Z" fill="#1E1512"/>
<path d="M369.584 199.824H492.738C512.22 199.824 528.001 184.189 528.001 164.888V136.601C528.001 95.8221 494.609 62.7397 453.449 62.7397H267.01C261.682 62.7397 257.371 67.011 257.371 72.2897V88.6092C257.33 150.019 307.601 199.824 369.584 199.824Z" fill="#1E1512"/>
</g>
<defs>
<clipPath id="clip0_892_2479">
<rect width="528" height="486" fill="white"/>
</clipPath>
</defs>
</svg>
