<svg width="30" height="142" viewBox="0 0 30 142" fill="none" xmlns="http://www.w3.org/2000/svg">
<rect width="21.1999" height="4.23997" rx="1" transform="matrix(-0.707554 0.706659 -0.707554 -0.706659 24 8.98853)" fill="#B83B5E"/>
<rect width="21.1999" height="4.23997" rx="1" transform="matrix(0.707554 0.706659 -0.707554 0.706659 9 5.99219)" fill="#B83B5E"/>
<ellipse cx="14.8491" cy="69.9153" rx="4.23729" ry="4.24265" transform="rotate(-90 14.8491 69.9153)" fill="#E74F79"/>
<ellipse cx="14.8491" cy="52.9661" rx="4.23729" ry="4.24265" transform="rotate(-90 14.8491 52.9661)" fill="#DB4871"/>
<ellipse cx="14.8491" cy="36.0169" rx="4.23729" ry="4.24265" transform="rotate(-90 14.8491 36.0169)" fill="#B83B5E"/>
<ellipse cx="14.8491" cy="120.763" rx="4.23729" ry="4.24265" transform="rotate(-90 14.8491 120.763)" fill="#FF6B94"/>
<ellipse cx="15.2427" cy="137.237" rx="4.23729" ry="4.24265" transform="rotate(-90 15.2427 137.237)" fill="#FF8EAE"/>
<ellipse cx="14.8491" cy="103.813" rx="4.23729" ry="4.24265" transform="rotate(-90 14.8491 103.813)" fill="#FF5686"/>
<ellipse cx="14.8491" cy="86.8645" rx="4.23729" ry="4.24265" transform="rotate(-90 14.8491 86.8645)" fill="#FC5885"/>
</svg>
