<svg width="51" height="60" viewBox="0 0 51 60" fill="none" xmlns="http://www.w3.org/2000/svg">
<g clip-path="url(#clip0_777_622)">
<path d="M37.0333 56.5882L36.9959 2.95751C36.9976 2.39036 36.7781 1.84547 36.3854 1.4422C35.9927 1.03892 35.4589 0.810121 34.9008 0.805908L2.09364 0.805908C1.53559 0.810121 1.00209 1.03892 0.609968 1.4422C0.217849 1.84547 -0.000925366 2.39036 0.00155962 2.95751L0.0390723 56.8193C0.0352403 57.3838 0.250624 57.9271 0.638467 58.3314C1.02631 58.7357 1.55531 58.9684 2.11063 58.9789H34.714C35.3324 58.9705 35.9225 58.7149 36.3566 58.2675C36.7907 57.8201 37.0338 57.2168 37.0333 56.5882Z" fill="#B83B5E"/>
<path d="M34.9401 56.6519L34.9042 5.10112C34.9316 4.49963 34.7245 3.91126 34.3279 3.46368C33.9312 3.01611 33.377 2.74545 32.7854 2.71045H7.49002C6.89995 2.74746 6.34808 3.01899 5.9537 3.46635C5.55932 3.9137 5.35411 4.50093 5.38243 5.10112L5.41843 56.7874C5.38897 57.3907 5.59642 57.9814 5.99518 58.4297C6.39394 58.878 6.95139 59.1471 7.54503 59.1781L32.8325 59.0426C33.4218 59.0036 33.9725 58.7315 34.3665 58.2846C34.7605 57.8377 34.9664 57.2516 34.9401 56.6519Z" fill="#E6E7E8"/>
<path d="M2.46484 4.96802C2.46508 5.30373 2.52492 5.63616 2.64094 5.94633C2.75697 6.25649 2.92691 6.53831 3.14106 6.77569C3.57356 7.25512 4.1599 7.52446 4.77108 7.52446L31.4874 7.52446L31.4856 4.96802L2.46484 4.96802Z" fill="#E6E7E8"/>
<path d="M4.69445 5.83404C4.69439 5.74421 4.76716 5.67139 4.85699 5.67139H30.9012C31.3218 5.67139 31.7253 5.83857 32.023 6.13617C32.3206 6.43377 32.4879 6.8374 32.4882 7.25826L32.5236 58.0621C32.5237 58.1497 32.4527 58.2207 32.3651 58.2207C32.2776 58.2207 32.2065 58.1497 32.2064 58.0621L32.1713 7.58357C32.171 7.1627 32.0036 6.75908 31.706 6.46148C31.4084 6.16388 31.0049 5.9967 30.5843 5.9967H4.85722C4.76739 5.9967 4.69451 5.92387 4.69445 5.83404Z" fill="#CCCCCC"/>
<path d="M4.62329 2.69434H7.48931L7.49098 5.08501H2.45967C2.47564 4.44445 2.71057 3.8364 3.11456 3.39001C3.51856 2.94363 4.05978 2.69406 4.62329 2.69434Z" fill="#E6E7E8"/>
<path d="M4.70898 7.51172L29.1105 7.51172C29.7344 7.51172 30.3329 7.7633 30.7743 8.21112C31.2158 8.65893 31.4641 9.2663 31.4645 9.89961L31.497 56.5909C31.4975 57.2242 31.2501 57.8316 30.8092 58.2794C30.3684 58.7272 29.7702 58.9788 29.1464 58.9788H4.74483L4.70898 7.51172Z" fill="#FF618D"/>
<path d="M26.0802 17.3491H10.0342C9.48189 17.3491 9.03449 17.7968 9.03488 18.3491L9.03823 23.1611C9.03861 23.7134 9.48664 24.1611 10.0389 24.1611H26.0849C26.6372 24.1611 27.0846 23.7134 27.0842 23.1611L27.0809 18.3491C27.0805 17.7968 26.6325 17.3491 26.0802 17.3491Z" fill="#B83B5E"/>
<path d="M11.2532 21.7291L11.2528 21.2091H11.7008C11.8728 21.2091 11.9928 21.0931 11.9926 20.9171C11.9925 20.7451 11.8724 20.6291 11.7004 20.6291H11.2524L11.2521 20.1691H11.8441C12.0241 20.1691 12.152 20.0371 12.1519 19.8571C12.1518 19.6771 12.0237 19.5491 11.8437 19.5491H10.9037C10.6957 19.5491 10.5518 19.6931 10.5519 19.8971L10.5534 21.9971C10.5535 22.2051 10.6976 22.3491 10.9056 22.3491H11.8656C12.0456 22.3491 12.1735 22.2171 12.1734 22.0371C12.1733 21.8571 12.0452 21.7291 11.8652 21.7291H11.2532ZM12.2724 22.0891C12.2725 22.2531 12.3846 22.3691 12.5566 22.3691C12.6686 22.3691 12.7605 22.3131 12.8324 22.2011L13.1321 21.7411L13.4204 22.2011C13.4925 22.3131 13.5886 22.3691 13.7126 22.3691C13.8886 22.3691 14.0085 22.2451 14.0083 22.0651C14.0083 21.9931 13.9802 21.9171 13.9282 21.8411L13.5238 21.2651L13.9114 20.7291C13.9554 20.6691 13.9793 20.6011 13.9793 20.5331C13.9792 20.3611 13.8591 20.2491 13.6951 20.2491C13.5871 20.2491 13.4951 20.3011 13.4272 20.4051L13.1595 20.8211L12.9112 20.4211C12.8391 20.3051 12.7431 20.2491 12.6271 20.2491C12.4471 20.2491 12.3232 20.3731 12.3233 20.5531C12.3233 20.6291 12.3474 20.6971 12.3954 20.7651L12.7678 21.2931L12.3442 21.8811C12.2963 21.9491 12.2723 22.0211 12.2724 22.0891ZM14.1293 21.5371C14.1297 22.0691 14.4819 22.3891 15.0219 22.3891C15.3459 22.3891 15.5898 22.2811 15.7457 22.0651C15.7976 22.0011 15.8216 21.9291 15.8215 21.8451C15.8214 21.6731 15.7013 21.5571 15.5413 21.5571C15.4693 21.5571 15.3974 21.5891 15.3254 21.6491C15.3134 21.6611 15.2295 21.7411 15.2015 21.7611C15.1735 21.7771 15.0975 21.8091 15.0295 21.8091C14.8855 21.8091 14.7894 21.7051 14.7893 21.5291L14.7892 21.4291H15.5892C15.7852 21.4291 15.9092 21.3051 15.909 21.1091L15.909 21.0811C15.9088 20.8131 15.8287 20.6051 15.6686 20.4571C15.5085 20.3051 15.2964 20.2291 15.0364 20.2291C14.7684 20.2291 14.5485 20.3091 14.3806 20.4651C14.2127 20.6211 14.1288 20.8291 14.129 21.0971L14.1293 21.5371ZM14.789 21.0091C14.7888 20.8331 14.8848 20.7291 15.0288 20.7291C15.1728 20.7291 15.2688 20.8331 15.269 21.0091L15.269 21.0291H14.789L14.789 21.0091ZM16.1697 22.0371C16.1698 22.2331 16.3059 22.3691 16.5019 22.3691C16.6939 22.3691 16.8298 22.2331 16.8297 22.0371L16.8291 21.1771C16.829 21.0051 16.9329 20.9091 17.0929 20.9091C17.3169 20.9091 17.4528 20.7651 17.4526 20.5691C17.4525 20.3731 17.3284 20.2291 17.1244 20.2291C16.9484 20.2291 16.7925 20.3731 16.7486 20.5651L16.7486 20.5371C16.7485 20.3731 16.6244 20.2491 16.4604 20.2491C16.2884 20.2491 16.1685 20.3651 16.1686 20.5371L16.1697 22.0371ZM17.5356 21.5571C17.5358 21.8171 17.6159 22.0211 17.772 22.1691C17.9321 22.3171 18.1402 22.3891 18.3962 22.3891C18.6362 22.3891 18.8321 22.3251 18.984 22.1971C19.1399 22.0651 19.2158 21.9091 19.2157 21.7251C19.2156 21.5451 19.0955 21.4291 18.9155 21.4291C18.7675 21.4291 18.6715 21.5011 18.6236 21.6491C18.5877 21.7571 18.5198 21.8091 18.4158 21.8091C18.2838 21.8091 18.1957 21.7131 18.1956 21.5491L18.1952 21.0691C18.1951 20.9051 18.2831 20.8091 18.4151 20.8091C18.5191 20.8091 18.5871 20.8611 18.6192 20.9611C18.6633 21.1011 18.7633 21.1691 18.9193 21.1691C19.0953 21.1691 19.2152 21.0371 19.2151 20.8451C19.215 20.6771 19.1389 20.5331 18.9908 20.4131C18.8427 20.2891 18.6507 20.2291 18.4107 20.2291C18.1547 20.2291 17.9427 20.3051 17.7788 20.4611C17.6149 20.6131 17.5351 20.8171 17.5353 21.0771L17.5356 21.5571ZM19.8524 20.1051C20.0804 20.1051 20.2403 19.9451 20.2402 19.7171C20.24 19.4931 20.0759 19.3291 19.8519 19.3291C19.7399 19.3291 19.6479 19.3651 19.572 19.4411C19.5 19.5131 19.4641 19.6051 19.4642 19.7171C19.4643 19.8291 19.5003 19.9211 19.5724 19.9971C19.6484 20.0691 19.7404 20.1051 19.8524 20.1051ZM20.1888 20.5851C20.1886 20.3891 20.0485 20.2491 19.8525 20.2491C19.6565 20.2491 19.5166 20.3891 19.5168 20.5851L19.5178 22.0331C19.5179 22.2291 19.658 22.3691 19.854 22.3691C20.05 22.3691 20.1899 22.2291 20.1898 22.0331L20.1888 20.5851ZM20.429 21.9131C20.429 22.0091 20.4851 22.1011 20.5971 22.1851C20.7732 22.3211 20.9853 22.3891 21.2293 22.3891C21.4573 22.3891 21.6413 22.3331 21.7892 22.2171C21.9371 22.1011 22.009 21.9411 22.0088 21.7371C22.0086 21.4211 21.8165 21.2171 21.4364 21.0531C21.2563 20.9771 21.1683 20.9011 21.1682 20.8331C21.1682 20.7771 21.2041 20.7491 21.2801 20.7491C21.3601 20.7491 21.4402 20.7811 21.5202 20.8451C21.5802 20.8891 21.6403 20.9131 21.7083 20.9131C21.8563 20.9131 21.9682 20.8091 21.9681 20.6531C21.968 20.5531 21.908 20.4651 21.7919 20.3811C21.6518 20.2811 21.4678 20.2291 21.2478 20.2291C21.0358 20.2291 20.8598 20.2851 20.7199 20.4011C20.58 20.5171 20.5081 20.6651 20.5082 20.8491C20.5084 21.1451 20.6846 21.3731 21.0367 21.5291C21.2728 21.6371 21.3488 21.6891 21.3489 21.7651C21.3489 21.8331 21.3049 21.8691 21.2129 21.8691C21.1289 21.8691 21.0329 21.8251 20.9168 21.7371C20.8448 21.6771 20.7728 21.6491 20.6968 21.6491C20.5368 21.6491 20.4288 21.7571 20.429 21.9131ZM22.2074 21.5371C22.2078 22.0691 22.56 22.3891 23.1 22.3891C23.424 22.3891 23.668 22.2811 23.8238 22.0651C23.8758 22.0011 23.8997 21.9291 23.8997 21.8451C23.8995 21.6731 23.7795 21.5571 23.6195 21.5571C23.5475 21.5571 23.4755 21.5891 23.4035 21.6491C23.3915 21.6611 23.3076 21.7411 23.2796 21.7611C23.2516 21.7771 23.1756 21.8091 23.1076 21.8091C22.9636 21.8091 22.8676 21.7051 22.8674 21.5291L22.8674 21.4291H23.6674C23.8634 21.4291 23.9873 21.3051 23.9871 21.1091L23.9871 21.0811C23.9869 20.8131 23.9068 20.6051 23.7467 20.4571C23.5866 20.3051 23.3745 20.2291 23.1145 20.2291C22.8465 20.2291 22.6266 20.3091 22.4587 20.4651C22.2908 20.6211 22.207 20.8291 22.2071 21.0971L22.2074 21.5371ZM22.8671 21.0091C22.867 20.8331 22.9629 20.7291 23.1069 20.7291C23.2509 20.7291 23.347 20.8331 23.3471 21.0091L23.3471 21.0291H22.8671L22.8671 21.0091ZM24.1086 21.9131C24.1087 22.0091 24.1648 22.1011 24.2768 22.1851C24.4529 22.3211 24.665 22.3891 24.909 22.3891C25.137 22.3891 25.3209 22.3331 25.4689 22.2171C25.6168 22.1011 25.6887 21.9411 25.6885 21.7371C25.6883 21.4211 25.4962 21.2171 25.116 21.0531C24.936 20.9771 24.8479 20.9011 24.8479 20.8331C24.8479 20.7771 24.8838 20.7491 24.9598 20.7491C25.0398 20.7491 25.1199 20.7811 25.1999 20.8451C25.2599 20.8891 25.3199 20.9131 25.3879 20.9131C25.5359 20.9131 25.6479 20.8091 25.6478 20.6531C25.6477 20.5531 25.5876 20.4651 25.4716 20.3811C25.3315 20.2811 25.1475 20.2291 24.9275 20.2291C24.7155 20.2291 24.5395 20.2851 24.3996 20.4011C24.2597 20.5171 24.1878 20.6651 24.1879 20.8491C24.1881 21.1451 24.3643 21.3731 24.7164 21.5291C24.9525 21.6371 25.0285 21.6891 25.0285 21.7651C25.0286 21.8331 24.9846 21.8691 24.8926 21.8691C24.8086 21.8691 24.7126 21.8251 24.5965 21.7371C24.5245 21.6771 24.4525 21.6491 24.3765 21.6491C24.2165 21.6491 24.1085 21.7571 24.1086 21.9131Z" fill="#F2F2F2"/>
<path d="M4.70421 4.26691C4.70415 4.17995 4.7746 4.10945 4.86156 4.10945L32.5821 4.10945C32.8063 4.10736 33.0288 4.14946 33.2365 4.23329C33.4442 4.31712 33.6331 4.44102 33.7921 4.59779C33.9512 4.75455 34.0772 4.94106 34.1629 5.14646C34.2486 5.35186 34.2923 5.57207 34.2914 5.79429L34.3278 58.0543C34.3279 58.1464 34.2532 58.2211 34.1611 58.2211C34.0689 58.2211 33.9942 58.1464 33.9941 58.0543L33.9579 6.07772C33.9513 5.63433 33.7678 5.21145 33.4475 4.9016C33.1271 4.59175 32.6961 4.42017 32.2486 4.42437L4.86178 4.42437C4.77482 4.42437 4.70427 4.35387 4.70421 4.26691Z" fill="#CCCCCC"/>
</g>
<path d="M42.8311 49.2983L39.7664 53.7379L39.0519 51.0457L38.3373 48.3535L40.3213 49.844L42.8311 49.2983Z" fill="#181818"/>
<path d="M38.3373 48.3535L40.3213 49.844L42.8311 49.2983L45.2009 45.6711L42.7416 46.1616L41.1761 45.0432L39.1832 45.4855L37.1946 44.1499L38.3373 48.3535Z" fill="#F6C09B"/>
<path d="M41.1761 45.0432L39.1832 45.4855L44.3917 13.6531L47.9501 14.3292C46.9947 20.1679 42.8458 45.5246 42.7416 46.1616L41.1761 45.0432Z" fill="#FF618D"/>
<path d="M42.7416 46.1616L45.2009 45.6711L50.2575 14.7676L47.9501 14.3292L42.7416 46.1616Z" fill="#B83B5E"/>
<path d="M37.1946 44.1499L39.1832 45.4855L44.3917 13.6531L42.2512 13.2464L37.1946 44.1499Z" fill="#B83B5E"/>
<defs>
<clipPath id="clip0_777_622">
<rect width="36.9943" height="58.3881" fill="white" transform="matrix(1 0 0.000696461 1 0 0.805908)"/>
</clipPath>
</defs>
</svg>
