<svg width="482" height="545" viewBox="0 0 482 545" fill="none" xmlns="http://www.w3.org/2000/svg">
<path d="M362.642 544.26H111.367C64.7785 544.26 27.0195 506.248 27.0195 459.347V191.598C27.0195 86.1479 111.93 0.667969 216.678 0.667969H266.685C366.249 0.667969 446.989 81.9496 446.989 182.181V459.347C446.989 506.248 409.23 544.26 362.642 544.26Z" fill="#330D10"/>
<path d="M446.527 332.867H35.951C16.3764 332.867 0.521484 316.906 0.521484 297.2V287.556C0.521484 267.85 16.3764 251.888 35.951 251.888H446.565C466.139 251.888 481.994 267.85 481.994 287.556V297.2C481.957 316.906 466.102 332.867 446.527 332.867Z" fill="#724C32"/>
<path d="M447.285 312.329H35.7314C26.1132 312.329 18.3359 304.462 18.3359 294.817V290.089C18.3359 280.407 26.1507 272.577 35.7314 272.577H447.285C456.903 272.577 464.68 280.445 464.68 290.089V294.817C464.718 304.462 456.903 312.329 447.285 312.329Z" fill="#8A5235"/>
<path d="M264.727 522.551H217.875C122.257 522.551 44.748 444.522 44.748 348.263V183.809C44.748 158.051 65.4873 137.173 91.0732 137.173H392.017C417.603 137.173 438.342 158.051 438.342 183.809V347.771C438.305 444.296 360.608 522.551 264.727 522.551Z" fill="#724C32"/>
<path d="M142.355 332.87H137.922C128.867 332.87 121.541 325.494 121.541 316.379V269.63C121.541 260.514 128.867 253.139 137.922 253.139H142.355C151.41 253.139 158.736 260.514 158.736 269.63V316.379C158.736 325.494 151.372 332.87 142.355 332.87Z" fill="black"/>
<path d="M279.612 460.937H212.473C187.45 460.937 167.162 440.513 167.162 415.285V406.926C167.162 398.038 174.301 390.851 183.13 390.851H307.753C316.92 390.851 324.359 398.34 324.359 407.569V415.928C324.322 440.778 304.296 460.937 279.612 460.937Z" fill="#E6927F"/>
<path d="M269.689 415.018H222.988C206.044 415.018 192.33 401.213 192.33 384.155V379.994H300.309V384.155C300.309 401.213 286.596 415.018 269.689 415.018Z" fill="#F8DABD"/>
<path d="M246.308 477.845C265.523 477.845 281.099 469.192 281.099 458.518C281.099 447.843 265.523 439.19 246.308 439.19C227.094 439.19 211.518 447.843 211.518 458.518C211.518 469.192 227.094 477.845 246.308 477.845Z" fill="#E06867"/>
<path d="M245.112 369.104C259.699 369.104 271.524 363.973 271.524 357.643C271.524 351.314 259.699 346.183 245.112 346.183C230.524 346.183 218.699 351.314 218.699 357.643C218.699 363.973 230.524 369.104 245.112 369.104Z" fill="#8A5235"/>
<path d="M348.742 332.87H344.309C335.254 332.87 327.928 325.494 327.928 316.379V269.63C327.928 260.514 335.254 253.139 344.309 253.139H348.742C357.797 253.139 365.123 260.514 365.123 269.63V316.379C365.123 325.494 357.797 332.87 348.742 332.87Z" fill="black"/>
<path d="M173.026 72.6477H346.378C398.264 72.6477 440.344 115.009 440.344 167.243V188.764C440.344 224.469 411.602 253.404 376.135 253.404H279.502C220.177 253.404 172.049 204.99 172.049 145.23V73.5933C172.086 73.0638 172.5 72.6477 173.026 72.6477Z" fill="#330D10"/>
<path d="M150.282 248.332H131.196C126.537 248.332 122.742 244.512 122.742 239.822V237.515C122.742 232.825 126.537 229.004 131.196 229.004H150.282C154.94 229.004 158.735 232.825 158.735 237.515V239.822C158.735 244.512 154.94 248.332 150.282 248.332Z" fill="#260602"/>
<path d="M209.728 59.7849L191.13 145.719C176.515 213.195 110.315 255.973 43.2878 241.26L26.8691 237.666L45.4669 151.733C60.0821 84.2564 126.282 41.4786 193.309 56.1917L209.728 59.7849Z" fill="#330D10"/>
<path d="M387.708 367.249C400.407 367.249 410.702 362.931 410.702 357.605C410.702 352.278 400.407 347.96 387.708 347.96C375.009 347.96 364.715 352.278 364.715 357.605C364.715 362.931 375.009 367.249 387.708 367.249Z" fill="#885A44"/>
<path d="M98.6341 366.718C111.333 366.718 121.628 362.4 121.628 357.073C121.628 351.746 111.333 347.428 98.6341 347.428C85.9351 347.428 75.6406 351.746 75.6406 357.073C75.6406 362.4 85.9351 366.718 98.6341 366.718Z" fill="#885A44"/>
</svg>
