<svg width="486" height="551" viewBox="0 0 486 551" fill="none" xmlns="http://www.w3.org/2000/svg">
<g clip-path="url(#clip0_892_2461)">
<path d="M368.88 551H115.223C68.1931 551 30.0762 512.47 30.0762 464.93V193.532C30.0762 86.6449 115.792 0 221.533 0H272.014C372.521 0 454.027 82.3893 454.027 183.986V464.93C454.027 512.47 415.91 551 368.88 551Z" fill="#1E1512"/>
<path d="M450.235 336.727H35.7654C16.0053 336.727 0 320.548 0 300.574V290.797C0 270.823 16.0053 254.644 35.7654 254.644H450.272C470.033 254.644 486.038 270.823 486.038 290.797V300.574C486 320.548 469.995 336.727 450.235 336.727Z" fill="#F6C09B"/>
<path d="M450.992 315.871H35.5369C25.8275 315.871 17.9766 307.896 17.9766 298.12V293.289C17.9766 283.475 25.8654 275.539 35.5369 275.539H450.992C460.702 275.539 468.553 283.513 468.553 293.289V298.082C468.59 307.935 460.702 315.871 450.992 315.871Z" fill="#E6927F"/>
<path d="M266.704 528.955H219.37C122.846 528.955 44.6016 449.863 44.6016 352.292V185.635C44.6016 159.526 65.5374 138.363 91.3659 138.363H395.163C420.992 138.363 441.928 159.526 441.928 185.635V351.832C441.928 449.671 363.456 528.955 266.704 528.955Z" fill="#F6C09B"/>
<path d="M143.137 336.727H138.661C129.521 336.727 122.125 329.251 122.125 320.011V272.625C122.125 263.385 129.521 255.909 138.661 255.909H143.137C152.277 255.909 159.673 263.385 159.673 272.625V320.011C159.673 329.251 152.277 336.727 143.137 336.727Z" fill="#666666"/>
<path d="M271.673 419.997H224.568C207.463 419.997 193.619 406.004 193.619 388.713V384.496H302.622V388.713C302.622 405.966 288.779 419.997 271.673 419.997Z" fill="#F8DABD"/>
<path d="M248.121 483.678C267.517 483.678 283.241 474.907 283.241 464.087C283.241 453.267 267.517 444.496 248.121 444.496C228.724 444.496 213 453.267 213 464.087C213 474.907 228.724 483.678 248.121 483.678Z" fill="#E06867"/>
<path d="M281.724 466.502H213.91C188.651 466.502 168.17 445.8 168.17 420.266V411.793C168.17 402.784 175.376 395.5 184.289 395.5H310.094C319.348 395.5 326.858 403.091 326.858 412.445V420.918C326.858 446.106 306.642 466.502 281.724 466.502Z" fill="#E6927F"/>
<path d="M246.907 373.455C261.633 373.455 273.57 368.254 273.57 361.838C273.57 355.423 261.633 350.222 246.907 350.222C232.182 350.222 220.244 355.423 220.244 361.838C220.244 368.254 232.182 373.455 246.907 373.455Z" fill="#E6927F"/>
<path d="M351.51 336.727H347.034C337.894 336.727 330.498 329.251 330.498 320.011V272.625C330.498 263.385 337.894 255.909 347.034 255.909H351.51C360.65 255.909 368.046 263.385 368.046 272.625V320.011C368.046 329.251 360.65 336.727 351.51 336.727Z" fill="#666666"/>
<path d="M177.5 72.9199H352.496C404.874 72.9199 447.352 115.859 447.352 168.804V190.619C447.352 226.81 418.338 256.139 382.535 256.139H284.986C225.098 256.139 176.514 207.066 176.514 146.491V73.9167C176.514 73.38 176.931 72.9199 177.5 72.9199Z" fill="#1E1512"/>
<path d="M151.141 251.002H131.873C127.17 251.002 123.34 247.129 123.34 242.375V240.037C123.34 235.283 127.17 231.411 131.873 231.411H151.141C155.843 231.411 159.674 235.283 159.674 240.037V242.375C159.674 247.168 155.881 251.002 151.141 251.002Z" fill="#260602"/>
<path d="M214.517 59.9232L195.743 147.028C180.989 215.424 114.161 258.785 46.4609 243.871L29.8867 240.229L48.6607 153.124C63.4144 84.7281 130.242 41.3674 197.904 56.281L214.517 59.9232Z" fill="#1E1512"/>
<path d="M390.84 371.576C403.66 371.576 414.052 367.199 414.052 361.8C414.052 356.4 403.66 352.023 390.84 352.023C378.021 352.023 367.629 356.4 367.629 361.8C367.629 367.199 378.021 371.576 390.84 371.576Z" fill="#F6AC9B"/>
<path d="M99.0279 371.001C111.847 371.001 122.239 366.624 122.239 361.225C122.239 355.825 111.847 351.448 99.0279 351.448C86.2085 351.448 75.8164 355.825 75.8164 361.225C75.8164 366.624 86.2085 371.001 99.0279 371.001Z" fill="#F6AC9B"/>
</g>
<defs>
<clipPath id="clip0_892_2461">
<rect width="486" height="551" fill="white"/>
</clipPath>
</defs>
</svg>
