<svg width="442" height="507" viewBox="0 0 442 507" fill="none" xmlns="http://www.w3.org/2000/svg">
<path d="M335.068 506.139H105.14C62.5076 506.139 27.9434 470.801 27.9434 427.215V178.381C27.931 80.3751 105.635 0.931641 201.496 0.931641H247.263C338.389 0.931641 412.264 76.4599 412.264 169.625V427.202C412.264 470.801 377.7 506.139 335.068 506.139Z" fill="#333340"/>
<path d="M0.658203 267.582C0.658203 249.286 15.1705 234.449 33.0661 234.449H408.811C426.707 234.449 441.219 249.286 441.219 267.582V276.54C441.219 294.836 426.707 309.673 408.811 309.673H33.0661C15.1705 309.673 0.658203 294.836 0.658203 276.54" fill="#F6C09B"/>
<path d="M409.522 290.554H32.8965C24.0974 290.554 16.959 283.256 16.959 274.26V269.851C16.959 260.855 24.0974 253.557 32.8965 253.557H409.522C418.321 253.557 425.459 260.855 425.459 269.851V274.26C425.459 283.256 418.321 290.554 409.522 290.554Z" fill="#E6927F"/>
<path d="M242.441 485.927H199.548C112.053 485.927 41.1152 413.402 41.1152 323.949V171.131C41.1152 147.197 60.089 127.786 83.5119 127.786H358.911C382.321 127.786 401.307 147.184 401.307 171.131V323.518C401.283 413.212 330.171 485.927 242.441 485.927Z" fill="#F6C09B"/>
<path d="M130.431 309.672H126.378C118.1 309.672 111.383 302.805 111.383 294.341V250.907C111.383 242.443 118.1 235.576 126.378 235.576H130.431C138.71 235.576 145.427 242.443 145.427 250.907V294.341C145.427 302.805 138.71 309.672 130.431 309.672Z" fill="#666666"/>
<path d="M246.939 386.01H204.22C188.729 386.01 176.162 373.175 176.162 357.325V353.448H274.997V357.325C274.997 373.175 262.43 386.01 246.939 386.01Z" fill="#F8DABD"/>
<path d="M225.563 444.397C243.153 444.397 257.413 436.353 257.413 426.43C257.413 416.507 243.153 408.463 225.563 408.463C207.973 408.463 193.713 416.507 193.713 426.43C193.713 436.353 207.973 444.397 225.563 444.397Z" fill="#E06867"/>
<path d="M256.07 428.674H194.612C171.698 428.674 153.133 409.681 153.133 386.266V378.512C153.133 370.251 159.676 363.561 167.757 363.561H281.798C290.188 363.561 296.992 370.517 296.992 379.095V386.849C296.992 409.947 278.675 428.674 256.07 428.674Z" fill="#E6927F"/>
<path d="M224.48 343.349C237.82 343.349 248.634 338.572 248.634 332.68C248.634 326.788 237.82 322.011 224.48 322.011C211.14 322.011 200.326 326.788 200.326 332.68C200.326 338.572 211.14 343.349 224.48 343.349Z" fill="#E6927F"/>
<path d="M319.29 309.672H315.238C306.959 309.672 300.242 302.805 300.242 294.341V250.907C300.242 242.443 306.959 235.576 315.238 235.576H319.29C327.569 235.576 334.286 242.443 334.286 250.907V294.341C334.286 302.805 327.581 309.672 319.29 309.672Z" fill="#666666"/>
<path d="M161.564 67.8042H320.195C367.697 67.8042 406.203 107.171 406.203 155.737V175.743C406.203 208.914 379.904 235.801 347.459 235.801H259.01C204.704 235.801 160.684 190.796 160.684 135.274V68.7038C160.696 68.197 161.08 67.8042 161.564 67.8042Z" fill="#333340"/>
<path d="M137.665 231.076H120.19C115.915 231.076 112.457 227.529 112.457 223.17V221.029C112.457 216.657 115.927 213.122 120.19 213.122H137.652C141.928 213.122 145.385 216.67 145.385 221.029V223.17C145.398 227.541 141.928 231.076 137.665 231.076Z" fill="#333340"/>
<path d="M195.14 55.8694L178.099 135.718C164.715 198.437 104.138 238.197 42.7919 224.512L27.7715 221.167L44.8119 141.319C58.1965 78.6001 118.774 38.8404 180.119 52.5244L195.14 55.8694Z" fill="#333340"/>
<path d="M354.945 341.624C366.56 341.624 375.976 337.602 375.976 332.641C375.976 327.679 366.56 323.657 354.945 323.657C343.33 323.657 333.914 327.679 333.914 332.641C333.914 337.602 343.33 341.624 354.945 341.624Z" fill="#F6AC9B"/>
<path d="M90.4177 341.131C102.033 341.131 111.449 337.109 111.449 332.147C111.449 327.186 102.033 323.164 90.4177 323.164C78.8026 323.164 69.3867 327.186 69.3867 332.147C69.3867 337.109 78.8026 341.131 90.4177 341.131Z" fill="#F6AC9B"/>
</svg>
