<svg width="482" height="544" viewBox="0 0 482 544" fill="none" xmlns="http://www.w3.org/2000/svg">
<path d="M362.083 543.998H110.845C64.257 543.998 26.498 505.986 26.498 459.086V191.337C26.498 85.8864 111.409 0.406494 216.157 0.406494H266.164C365.727 0.406494 446.467 81.6881 446.467 181.919V459.086C446.467 505.949 408.671 543.998 362.083 543.998Z" fill="#AB5621"/>
<path d="M446.006 332.568H35.4295C15.855 332.568 0 316.607 0 296.901V287.256C0 267.551 15.855 251.589 35.4295 251.589H446.043C465.618 251.589 481.473 267.551 481.473 287.256V296.901C481.435 316.607 465.58 332.568 446.006 332.568Z" fill="#F6C09B"/>
<path d="M446.763 312.031H35.2098C25.5917 312.031 17.8145 304.163 17.8145 294.518V289.791C17.8145 280.108 25.6292 272.241 35.2098 272.241H446.763C456.381 272.241 464.159 280.108 464.159 289.791V294.518C464.196 304.163 456.381 312.031 446.763 312.031Z" fill="#E6927F"/>
<path d="M264.2 522.252H217.311C121.693 522.252 44.1836 444.223 44.1836 347.963V183.547C44.1836 157.789 64.9228 136.911 90.5087 136.911H391.453C417.039 136.911 437.778 157.789 437.778 183.547V347.509C437.778 443.996 360.043 522.252 264.2 522.252Z" fill="#F6C09B"/>
<path d="M141.791 332.571H137.358C128.303 332.571 120.977 325.195 120.977 316.08V269.331C120.977 260.215 128.303 252.84 137.358 252.84H141.791C150.846 252.84 158.172 260.215 158.172 269.331V316.08C158.172 325.195 150.846 332.571 141.791 332.571Z" fill="#666666"/>
<path d="M279.085 460.638H211.908C186.886 460.638 166.598 440.214 166.598 414.986V406.627C166.598 397.739 173.736 390.552 182.565 390.552H307.189C316.356 390.552 323.795 398.041 323.795 407.27V415.629C323.795 440.479 303.77 460.638 279.085 460.638Z" fill="#E6927F"/>
<path d="M269.13 414.72H222.467C205.522 414.72 191.809 400.914 191.809 383.856V379.695H299.788V383.856C299.788 400.914 286.074 414.72 269.13 414.72Z" fill="#F8DABD"/>
<path d="M245.787 477.541C265.001 477.541 280.578 468.888 280.578 458.213C280.578 447.539 265.001 438.886 245.787 438.886C226.572 438.886 210.996 447.539 210.996 458.213C210.996 468.888 226.572 477.541 245.787 477.541Z" fill="#E06867"/>
<path d="M244.59 368.805C259.177 368.805 271.003 363.674 271.003 357.345C271.003 351.015 259.177 345.884 244.59 345.884C230.003 345.884 218.178 351.015 218.178 357.345C218.178 363.674 230.003 368.805 244.59 368.805Z" fill="#E6927F"/>
<path d="M348.199 332.571H343.766C334.711 332.571 327.385 325.195 327.385 316.08V269.331C327.385 260.215 334.711 252.84 343.766 252.84H348.199C357.254 252.84 364.58 260.215 364.58 269.331V316.08C364.58 325.195 357.254 332.571 348.199 332.571Z" fill="#666666"/>
<path d="M172.483 72.3486H345.836C397.721 72.3486 439.801 114.71 439.801 166.944V188.465C439.801 224.17 411.059 253.105 375.592 253.105H278.959C219.634 253.105 171.506 204.691 171.506 144.931V73.2942C171.506 72.7647 171.957 72.3486 172.483 72.3486Z" fill="#AB5621"/>
<path d="M149.717 248.032H130.631C125.972 248.032 122.178 244.212 122.178 239.522V237.215C122.178 232.525 125.972 228.705 130.631 228.705H149.717C154.376 228.705 158.171 232.525 158.171 237.215V239.522C158.171 244.212 154.414 248.032 149.717 248.032Z" fill="#BB663A"/>
<path d="M209.2 59.4858L190.603 145.42C175.988 212.896 109.788 255.674 42.7608 240.961L26.3047 237.367L44.9023 151.434C59.5175 83.9574 125.718 41.1795 192.744 55.8927L209.2 59.4858Z" fill="#AB5621"/>
<path d="M387.165 366.95C399.864 366.95 410.159 362.632 410.159 357.306C410.159 351.979 399.864 347.661 387.165 347.661C374.466 347.661 364.172 351.979 364.172 357.306C364.172 362.632 374.466 366.95 387.165 366.95Z" fill="#F6AC9B"/>
<path d="M98.0911 366.419C110.79 366.419 121.085 362.101 121.085 356.774C121.085 351.448 110.79 347.129 98.0911 347.129C85.3922 347.129 75.0977 351.448 75.0977 356.774C75.0977 362.101 85.3922 366.419 98.0911 366.419Z" fill="#F6AC9B"/>
</svg>
