<svg width="482" height="545" viewBox="0 0 482 545" fill="none" xmlns="http://www.w3.org/2000/svg">
<path d="M365.692 544.178H114.417C67.8292 544.178 30.0703 506.166 30.0703 459.265V191.516C30.0703 86.0659 114.981 0.585938 219.729 0.585938H269.736C369.299 0.585938 450.039 81.8675 450.039 182.098V459.265C450.039 506.166 412.28 544.178 365.692 544.178Z" fill="#B89062"/>
<path d="M365.708 544.178H114.433C67.8448 544.178 30.0859 506.166 30.0859 459.266V191.517C30.0859 86.0664 114.996 0.586426 219.745 0.586426H269.752C369.315 0.586426 450.055 81.868 450.055 182.099V459.266C450.055 506.166 412.296 544.178 365.708 544.178Z" fill="#B89062"/>
<path d="M446.284 332.785H35.6697C16.0952 332.785 0.240234 316.824 0.240234 297.118V287.473C0.240234 267.768 16.0952 251.806 35.6697 251.806H446.284C465.858 251.806 481.713 267.768 481.713 287.473V297.118C481.675 316.824 465.858 332.785 446.284 332.785Z" fill="#F6C09B"/>
<path d="M447.035 312.248H35.4813C25.8631 312.248 18.0859 304.38 18.0859 294.736V290.008C18.0859 280.325 25.9007 272.496 35.4813 272.496H447.035C456.653 272.496 464.43 280.363 464.43 290.008V294.736C464.468 304.38 456.653 312.248 447.035 312.248Z" fill="#E6927F"/>
<path d="M264.477 522.468H217.588C121.97 522.468 44.4609 444.439 44.4609 348.179V183.725C44.4609 157.967 65.2002 137.089 90.786 137.089H391.73C417.316 137.089 438.055 157.967 438.055 183.725V347.688C438.055 444.212 360.321 522.468 264.477 522.468Z" fill="#F6C09B"/>
<path d="M142.07 332.785H137.637C128.582 332.785 121.256 325.41 121.256 316.295V269.545C121.256 260.43 128.582 253.054 137.637 253.054H142.07C151.125 253.054 158.451 260.43 158.451 269.545V316.295C158.451 325.41 151.125 332.785 142.07 332.785Z" fill="#666666"/>
<path d="M279.355 460.854H212.178C187.156 460.854 166.867 440.43 166.867 415.202V406.843C166.867 397.954 174.006 390.768 182.835 390.768H307.458C316.625 390.768 324.064 398.257 324.064 407.486V415.845C324.064 440.694 304.039 460.854 279.355 460.854Z" fill="#E6927F"/>
<path d="M269.399 414.937H222.736C205.792 414.937 192.078 401.132 192.078 384.073V379.913H300.057V384.073C300.057 401.132 286.344 414.937 269.399 414.937Z" fill="#F8DABD"/>
<path d="M246.066 477.761C265.281 477.761 280.857 469.108 280.857 458.434C280.857 447.759 265.281 439.106 246.066 439.106C226.852 439.106 211.275 447.759 211.275 458.434C211.275 469.108 226.852 477.761 246.066 477.761Z" fill="#E06867"/>
<path d="M244.866 369.02C259.453 369.02 271.278 363.889 271.278 357.559C271.278 351.23 259.453 346.099 244.866 346.099C230.278 346.099 218.453 351.23 218.453 357.559C218.453 363.889 230.278 369.02 244.866 369.02Z" fill="#E6927F"/>
<path d="M348.486 332.785H344.053C334.998 332.785 327.672 325.41 327.672 316.295V269.545C327.672 260.43 334.998 253.054 344.053 253.054H348.486C357.541 253.054 364.867 260.43 364.867 269.545V316.295C364.867 325.41 357.503 332.785 348.486 332.785Z" fill="#666666"/>
<path d="M176.072 72.5632H349.425C401.311 72.5632 443.39 114.925 443.39 167.159V188.68C443.39 224.385 414.648 253.319 379.181 253.319H282.586C223.261 253.319 175.133 204.906 175.133 145.146V73.5088C175.133 72.9793 175.546 72.5632 176.072 72.5632Z" fill="#B89062"/>
<path d="M149.999 248.251H130.912C126.254 248.251 122.459 244.431 122.459 239.741V237.434C122.459 232.743 126.254 228.923 130.912 228.923H149.999C154.657 228.923 158.452 232.743 158.452 237.434V239.741C158.452 244.431 154.695 248.251 149.999 248.251Z" fill="#CBA67B"/>
<path d="M212.78 59.7034L194.182 145.637C179.567 213.113 113.367 255.891 46.3404 241.178L29.9219 237.585L48.5195 151.651C63.1347 84.1749 129.335 41.3971 196.362 56.1102L212.78 59.7034Z" fill="#B89062"/>
<path d="M387.447 367.166C400.146 367.166 410.44 362.848 410.44 357.522C410.44 352.195 400.146 347.877 387.447 347.877C374.748 347.877 364.453 352.195 364.453 357.522C364.453 362.848 374.748 367.166 387.447 367.166Z" fill="#F6AC9B"/>
<path d="M98.3763 366.637C111.075 366.637 121.37 362.319 121.37 356.992C121.37 351.665 111.075 347.347 98.3763 347.347C85.6773 347.347 75.3828 351.665 75.3828 356.992C75.3828 362.319 85.6773 366.637 98.3763 366.637Z" fill="#F6AC9B"/>
</svg>
