<svg width="483" height="544" viewBox="0 0 483 544" fill="none" xmlns="http://www.w3.org/2000/svg">
<path d="M362.993 543.896H111.718C65.1299 543.896 27.3711 505.884 27.3711 458.984V191.235C27.3711 85.7842 112.282 0.304199 217.03 0.304199H267.037C366.6 0.304199 447.34 81.5858 447.34 181.817V458.984C447.34 505.884 409.581 543.896 362.993 543.896Z" fill="#1E1512"/>
<path d="M446.9 332.503H36.324C16.7495 332.503 0.894531 316.542 0.894531 296.836V287.191C0.894531 267.486 16.7495 251.524 36.324 251.524H446.938C466.512 251.524 482.367 267.486 482.367 287.191V296.836C482.33 316.542 466.475 332.503 446.9 332.503Z" fill="#724C32"/>
<path d="M447.674 311.928H36.1204C26.5022 311.928 18.6875 304.061 18.6875 294.416V289.688C18.6875 280.006 26.5022 272.139 36.1204 272.139H447.674C457.292 272.139 465.069 280.006 465.069 289.688V294.416C465.069 304.099 457.292 311.928 447.674 311.928Z" fill="#8A5235"/>
<path d="M265.078 522.144H218.227C122.609 522.144 45.0996 444.116 45.0996 347.856V183.439C45.0996 157.682 65.8388 136.804 91.4247 136.804H392.369C417.955 136.804 438.694 157.682 438.694 183.439V347.402C438.656 443.926 360.96 522.144 265.078 522.144Z" fill="#724C32"/>
<path d="M142.707 332.5H138.274C129.219 332.5 121.893 325.125 121.893 316.009V269.26C121.893 260.145 129.219 252.77 138.274 252.77H142.707C151.762 252.77 159.088 260.145 159.088 269.26V316.009C159.088 325.125 151.762 332.5 142.707 332.5Z" fill="black"/>
<path d="M279.959 460.573H212.819C187.797 460.573 167.471 440.149 167.471 414.921V406.562C167.471 397.674 174.609 390.487 183.438 390.487H308.062C317.229 390.487 324.668 397.976 324.668 407.205V415.564C324.668 440.414 304.643 460.573 279.959 460.573Z" fill="#E6927F"/>
<path d="M270.04 414.655H223.34C206.395 414.655 192.682 400.849 192.682 383.791V379.63H300.661V383.791C300.698 400.849 286.947 414.655 270.04 414.655Z" fill="#F8DABD"/>
<path d="M246.66 477.481C265.875 477.481 281.451 468.828 281.451 458.154C281.451 447.479 265.875 438.826 246.66 438.826C227.446 438.826 211.869 447.479 211.869 458.154C211.869 468.828 227.446 477.481 246.66 477.481Z" fill="#E06867"/>
<path d="M245.463 368.735C260.051 368.735 271.876 363.604 271.876 357.274C271.876 350.945 260.051 345.814 245.463 345.814C230.876 345.814 219.051 350.945 219.051 357.274C219.051 363.604 230.876 368.735 245.463 368.735Z" fill="#8A5235"/>
<path d="M349.094 332.5H344.66C335.606 332.5 328.279 325.125 328.279 316.009V269.26C328.279 260.145 335.606 252.77 344.66 252.77H349.094C358.148 252.77 365.475 260.145 365.475 269.26V316.009C365.475 325.125 358.148 332.5 349.094 332.5Z" fill="black"/>
<path d="M173.377 72.241H346.73C398.616 72.241 440.695 114.603 440.695 166.836V188.358C440.695 224.062 411.953 252.997 376.486 252.997H279.854C220.529 252.997 172.4 204.584 172.4 144.823V73.1865C172.438 72.6948 172.851 72.241 173.377 72.241Z" fill="#1E1512"/>
<path d="M150.655 247.931H131.569C126.91 247.931 123.115 244.11 123.115 239.42V237.113C123.115 232.423 126.91 228.603 131.569 228.603H150.655C155.314 228.603 159.108 232.423 159.108 237.113V239.42C159.108 244.148 155.314 247.931 150.655 247.931Z" fill="#260602"/>
<path d="M210.079 59.4211L191.481 145.355C176.866 212.831 110.666 255.609 43.6392 240.896L27.2207 237.303L45.8183 151.369C60.4334 83.8926 126.634 41.1148 193.66 55.828L210.079 59.4211Z" fill="#1E1512"/>
<path d="M388.06 366.885C400.759 366.885 411.053 362.567 411.053 357.241C411.053 351.914 400.759 347.596 388.06 347.596C375.361 347.596 365.066 351.914 365.066 357.241C365.066 362.567 375.361 366.885 388.06 366.885Z" fill="#885A44"/>
<path d="M98.9856 366.354C111.685 366.354 121.979 362.036 121.979 356.709C121.979 351.383 111.685 347.064 98.9856 347.064C86.2867 347.064 75.9922 351.383 75.9922 356.709C75.9922 362.036 86.2867 366.354 98.9856 366.354Z" fill="#885A44"/>
</svg>
