<svg width="40" height="40" viewBox="0 0 40 40" fill="none" xmlns="http://www.w3.org/2000/svg">
<path d="M40 20C40 8.95431 31.0457 0 20 0C8.95431 0 0 8.95431 0 20C0 31.0457 8.95431 40 20 40C31.0457 40 40 31.0457 40 20Z" fill="url(#paint0_linear_759_644)"/>
<path d="M17.001 23.9998C17.001 22.8952 16.1055 21.9998 15.001 21.9998C13.8964 21.9998 13.001 22.8952 13.001 23.9998C13.001 25.1043 13.8964 25.9998 15.001 25.9998C16.1055 25.9998 17.001 25.1043 17.001 23.9998Z" fill="#FF799F"/>
<path d="M12 19.9998C12 18.3429 10.6569 16.9998 9 16.9998C7.34315 16.9998 6 18.3429 6 19.9998C6 21.6566 7.34315 22.9998 9 22.9998C10.6569 22.9998 12 21.6566 12 19.9998Z" fill="#FF92B1"/>
<path d="M10 11.0002C10 9.34339 8.65685 8.00024 7 8.00024C5.34315 8.00024 4 9.34339 4 11.0002C4 12.6571 5.34315 14.0002 7 14.0002C8.65685 14.0002 10 12.6571 10 11.0002Z" fill="#F9BCCD"/>
<path d="M22.0029 16.0002C22.0029 14.3434 20.6598 13.0002 19.0029 13.0002C17.3461 13.0002 16.0029 14.3434 16.0029 16.0002C16.0029 17.6571 17.3461 19.0002 19.0029 19.0002C20.6598 19.0002 22.0029 17.6571 22.0029 16.0002Z" fill="#FF82A5"/>
<path d="M19.002 4.00024C19.002 2.89567 18.1065 2.00024 17.002 2.00024C15.8974 2.00024 15.002 2.89567 15.002 4.00024C15.002 5.10481 15.8974 6.00024 17.002 6.00024C18.1065 6.00024 19.002 5.10481 19.002 4.00024Z" fill="#FDABC2"/>
<path d="M37.002 26.9998C37.002 25.3429 35.6588 23.9998 34.002 23.9998C32.3451 23.9998 31.002 25.3429 31.002 26.9998C31.002 28.6566 32.3451 29.9998 34.002 29.9998C35.6588 29.9998 37.002 28.6566 37.002 26.9998Z" fill="#CACACA"/>
<path d="M37.002 26.9998C37.002 25.3429 35.6588 23.9998 34.002 23.9998C32.3451 23.9998 31.002 25.3429 31.002 26.9998C31.002 28.6566 32.3451 29.9998 34.002 29.9998C35.6588 29.9998 37.002 28.6566 37.002 26.9998Z" fill="url(#paint1_linear_759_644)"/>
<path d="M16 34C16 32.3431 14.6569 31 13 31C11.3431 31 10 32.3431 10 34C10 35.6569 11.3431 37 13 37C14.6569 37 16 35.6569 16 34Z" fill="url(#paint2_linear_759_644)"/>
<path d="M34.002 15.5C34.002 13.0147 31.9872 11 29.502 11C27.0167 11 25.002 13.0147 25.002 15.5C25.002 17.9853 27.0167 20 29.502 20C31.9872 20 34.002 17.9853 34.002 15.5Z" fill="#FF7199"/>
<path d="M9 27.5002C9 26.6718 8.32843 26.0002 7.5 26.0002C6.67157 26.0002 6 26.6718 6 27.5002C6 28.3287 6.67157 29.0002 7.5 29.0002C8.32843 29.0002 9 28.3287 9 27.5002Z" fill="#FF7BA0"/>
<path d="M26.001 9.00024C27.6578 9.00024 29.001 7.6571 29.001 6.00024C29.001 4.34339 27.6578 3.00024 26.001 3.00024C24.3441 3.00024 23.001 4.34339 23.001 6.00024C23.001 7.6571 24.3441 9.00024 26.001 9.00024Z" fill="#FF82A5"/>
<path d="M29.001 30.5002C29.001 28.015 26.9863 26.0002 24.501 26.0002C22.0157 26.0002 20.001 28.015 20.001 30.5002C20.001 32.9855 22.0157 35.0002 24.501 35.0002C26.9863 35.0002 29.001 32.9855 29.001 30.5002Z" fill="url(#paint3_linear_759_644)"/>
<defs>
<linearGradient id="paint0_linear_759_644" x1="7" y1="4.5" x2="22" y2="20.5" gradientUnits="userSpaceOnUse">
<stop stop-color="#FFD7E2"/>
<stop offset="1" stop-color="#FF618D"/>
</linearGradient>
<linearGradient id="paint1_linear_759_644" x1="32.6399" y1="24.2263" x2="36.367" y2="28.5747" gradientUnits="userSpaceOnUse">
<stop stop-color="#FF749B"/>
<stop offset="1" stop-color="#FF628E"/>
</linearGradient>
<linearGradient id="paint2_linear_759_644" x1="11.519" y1="31.6806" x2="15.2462" y2="36.6502" gradientUnits="userSpaceOnUse">
<stop stop-color="#FA6A93"/>
<stop offset="1" stop-color="#FA6A93" stop-opacity="0"/>
</linearGradient>
<linearGradient id="paint3_linear_759_644" x1="20.8369" y1="26.7112" x2="27.0488" y2="34.1655" gradientUnits="userSpaceOnUse">
<stop stop-color="#FA87A7"/>
<stop offset="1" stop-color="#FA87A7" stop-opacity="0"/>
</linearGradient>
</defs>
</svg>
