<svg width="100" height="100" viewBox="0 0 100 100" fill="none" xmlns="http://www.w3.org/2000/svg">
<path d="M100 50C100 22.3858 77.6142 0 50 0C22.3858 0 0 22.3858 0 50C0 77.6142 22.3858 100 50 100C77.6142 100 100 77.6142 100 50Z" fill="url(#paint0_linear_1017_675)"/>
<path d="M42.502 59.9993C42.502 57.2379 40.2634 54.9993 37.502 54.9993C34.7405 54.9993 32.502 57.2379 32.502 59.9993C32.502 62.7608 34.7405 64.9993 37.502 64.9993C40.2634 64.9993 42.502 62.7608 42.502 59.9993Z" fill="#FF799F"/>
<path d="M30 49.9993C30 45.8572 26.6421 42.4993 22.5 42.4993C18.3579 42.4993 15 45.8572 15 49.9993C15 54.1415 18.3579 57.4993 22.5 57.4993C26.6421 57.4993 30 54.1415 30 49.9993Z" fill="#FF92B1"/>
<path d="M24.999 27.5006C24.999 23.3585 21.6412 20.0006 17.499 20.0006C13.3569 20.0006 9.99902 23.3585 9.99902 27.5006C9.99902 31.6427 13.3569 35.0006 17.499 35.0006C21.6412 35.0006 24.999 31.6427 24.999 27.5006Z" fill="#F9BCCD"/>
<path d="M55.0078 40.0007C55.0078 35.8586 51.6499 32.5007 47.5078 32.5007C43.3657 32.5007 40.0078 35.8586 40.0078 40.0007C40.0078 44.1429 43.3657 47.5007 47.5078 47.5007C51.6499 47.5007 55.0078 44.1429 55.0078 40.0007Z" fill="#FF82A5"/>
<path d="M47.5039 10.0007C47.5039 7.23928 45.2653 5.0007 42.5039 5.0007C39.7425 5.0007 37.5039 7.23928 37.5039 10.0007C37.5039 12.7621 39.7425 15.0007 42.5039 15.0007C45.2653 15.0007 47.5039 12.7621 47.5039 10.0007Z" fill="#FDABC2"/>
<path d="M92.5049 67.4993C92.5049 63.3572 89.147 59.9993 85.0049 59.9993C80.8627 59.9993 77.5049 63.3572 77.5049 67.4993C77.5049 71.6415 80.8627 74.9993 85.0049 74.9993C89.147 74.9993 92.5049 71.6415 92.5049 67.4993Z" fill="#CACACA"/>
<path d="M92.5049 67.4993C92.5049 63.3572 89.147 59.9993 85.0049 59.9993C80.8627 59.9993 77.5049 63.3572 77.5049 67.4993C77.5049 71.6415 80.8627 74.9993 85.0049 74.9993C89.147 74.9993 92.5049 71.6415 92.5049 67.4993Z" fill="url(#paint1_linear_1017_675)"/>
<path d="M40 85C40 80.8579 36.6421 77.5 32.5 77.5C28.3579 77.5 25 80.8579 25 85C25 89.1421 28.3579 92.5 32.5 92.5C36.6421 92.5 40 89.1421 40 85Z" fill="url(#paint2_linear_1017_675)"/>
<path d="M85.0059 38.7499C85.0059 32.5367 79.9691 27.4999 73.7559 27.4999C67.5427 27.4999 62.5059 32.5367 62.5059 38.7499C62.5059 44.9631 67.5427 49.9999 73.7559 49.9999C79.9691 49.9999 85.0059 44.9631 85.0059 38.7499Z" fill="#FF7199"/>
<path d="M22.5 68.7505C22.5 66.6795 20.8211 65.0005 18.75 65.0005C16.6789 65.0005 15 66.6795 15 68.7505C15 70.8216 16.6789 72.5005 18.75 72.5005C20.8211 72.5005 22.5 70.8216 22.5 68.7505Z" fill="#FF7BA0"/>
<path d="M65.002 22.5006C69.1441 22.5006 72.502 19.1427 72.502 15.0005C72.502 10.8584 69.1441 7.50055 65.002 7.50055C60.8598 7.50055 57.502 10.8584 57.502 15.0005C57.502 19.1427 60.8598 22.5006 65.002 22.5006Z" fill="#FF82A5"/>
<path d="M72.5029 76.2505C72.5029 70.0373 67.4661 65.0005 61.2529 65.0005C55.0397 65.0005 50.0029 70.0373 50.0029 76.2505C50.0029 82.4638 55.0397 87.5005 61.2529 87.5005C67.4661 87.5005 72.5029 82.4638 72.5029 76.2505Z" fill="url(#paint3_linear_1017_675)"/>
<defs>
<linearGradient id="paint0_linear_1017_675" x1="17.5" y1="11.25" x2="55" y2="51.25" gradientUnits="userSpaceOnUse">
<stop stop-color="#FFD7E2"/>
<stop offset="1" stop-color="#FF618D"/>
</linearGradient>
<linearGradient id="paint1_linear_1017_675" x1="81.5996" y1="60.5658" x2="90.9175" y2="71.4366" gradientUnits="userSpaceOnUse">
<stop stop-color="#FF749B"/>
<stop offset="1" stop-color="#FF628E"/>
</linearGradient>
<linearGradient id="paint2_linear_1017_675" x1="28.7975" y1="79.2016" x2="38.1154" y2="91.6254" gradientUnits="userSpaceOnUse">
<stop stop-color="#FA6A93"/>
<stop offset="1" stop-color="#FA6A93" stop-opacity="0"/>
</linearGradient>
<linearGradient id="paint3_linear_1017_675" x1="52.0928" y1="66.778" x2="67.6225" y2="85.4137" gradientUnits="userSpaceOnUse">
<stop stop-color="#FA87A7"/>
<stop offset="1" stop-color="#FA87A7" stop-opacity="0"/>
</linearGradient>
</defs>
</svg>
