<svg width="35" height="56" viewBox="0 0 35 56" fill="none" xmlns="http://www.w3.org/2000/svg">
<path d="M6.20871 52.0301L0.477424 55.2989L0.393241 52.7374L0.379214 48.6644L2.48 51.725L6.20871 52.0301Z" fill="#181818"/>
<path d="M0.379214 48.6644L2.48 51.725L6.20871 52.0301L12.3345 48.2946L8.58134 47.795L6.34058 44.834L2.75184 44.4294L0.601314 41.5204L0.379214 48.6644Z" fill="#F6C09B"/>
<path d="M6.34058 44.834L2.75184 44.4294L26.9397 1.2548L32.7692 4.62046C28.5309 12.654 9.0437 46.9186 8.58134 47.795L6.34058 44.834Z" fill="#6A2C70"/>
<path d="M8.58134 47.795L12.3345 48.2946L24.0758 27.3373L34.0985 9.44745C35.0405 7.76606 34.4399 5.58503 32.7692 4.62046L8.58134 47.795Z" fill="#181818"/>
<path d="M0.601314 41.5204L2.75184 44.4294L26.9397 1.2548L26.6168 1.06837C25.2074 0.254661 23.4496 0.736951 22.6549 2.15538L0.601314 41.5204Z" fill="#181818"/>
</svg>
