<svg width="55" height="60" viewBox="0 0 55 60" fill="none" xmlns="http://www.w3.org/2000/svg">
<g clip-path="url(#clip0_825_2164)">
<path d="M40.0519 56.5709L40.0116 2.97492C40.0135 2.40813 39.7771 1.8636 39.3542 1.46058C38.9314 1.05757 38.3565 0.828917 37.7556 0.824707L2.42737 0.824707C1.82644 0.828917 1.25194 1.05757 0.829692 1.46058C0.40744 1.8636 0.171855 2.40813 0.174531 2.97492L0.214926 56.8019C0.2108 57.3659 0.442734 57.909 0.86038 58.313C1.27803 58.7171 1.84768 58.9496 2.44567 58.96H37.5543C38.2203 58.9517 38.8558 58.6963 39.3232 58.2491C39.7906 57.802 40.0524 57.1991 40.0519 56.5709Z" fill="#B83B5E"/>
<path d="M37.7977 56.6346L37.759 5.11715C37.7886 4.51605 37.5655 3.92806 37.1384 3.48077C36.7112 3.03349 36.1144 2.76301 35.4775 2.72803H8.23826C7.60285 2.76502 7.00857 3.03637 6.58388 3.48343C6.1592 3.9305 5.93822 4.51735 5.96872 5.11715L6.00748 56.77C5.97576 57.3729 6.19914 57.9632 6.62855 58.4112C7.05795 58.8592 7.65823 59.1282 8.2975 59.1591L35.5281 59.0237C36.1628 58.9847 36.7557 58.7128 37.18 58.2662C37.6042 57.8196 37.826 57.2339 37.7977 56.6346Z" fill="#E6E7E8"/>
<path d="M2.82715 4.98389C2.8274 5.31939 2.89184 5.6516 3.01678 5.96156C3.14172 6.27152 3.32472 6.55316 3.55533 6.79039C4.02107 7.26951 4.65246 7.53867 5.3106 7.53867L34.0799 7.53867L34.078 4.98389L2.82715 4.98389Z" fill="#E6E7E8"/>
<path d="M5.22766 5.84956C5.22759 5.75979 5.30031 5.68701 5.39009 5.68701H33.4483C33.9012 5.68701 34.3357 5.85409 34.6562 6.1515C34.9767 6.4489 35.1569 6.85227 35.1572 7.27286L35.1953 58.0315C35.1954 58.1259 35.119 58.2023 35.0247 58.2023C34.9303 58.2023 34.8538 58.1259 34.8538 58.0315L34.8159 7.59796C34.8156 7.17736 34.6354 6.774 34.3149 6.47659C33.9944 6.17919 33.5599 6.01211 33.107 6.01211H5.39033C5.30056 6.01211 5.22773 5.93933 5.22766 5.84956Z" fill="#CCCCCC"/>
<path d="M5.15198 2.71191H8.23824L8.24004 5.10104H2.82211C2.8393 4.4609 3.09228 3.85324 3.52732 3.40714C3.96236 2.96104 4.54517 2.71164 5.15198 2.71191Z" fill="#E6E7E8"/>
<path d="M5.24414 7.52637L31.5208 7.52637C32.1926 7.52637 32.8371 7.77779 33.3124 8.22531C33.7878 8.67284 34.0552 9.27982 34.0556 9.91272L34.0907 56.5738C34.0911 57.2067 33.8247 57.8137 33.35 58.2612C32.8753 58.7087 32.2312 58.9602 31.5594 58.9602H5.28274L5.24414 7.52637Z" fill="#FF618D"/>
<path d="M28.3341 17.3574H10.9014C10.3491 17.3574 9.9017 17.8051 9.90212 18.3574L9.90573 23.165C9.90614 23.7172 10.3542 24.165 10.9065 24.165H28.3392C28.8915 24.165 29.3389 23.7172 29.3385 23.165L29.3349 18.3574C29.3344 17.8051 28.8864 17.3574 28.3341 17.3574Z" fill="#B83B5E"/>
<path d="M12.6251 21.9424C12.6253 22.2024 12.8054 22.3824 13.0654 22.3824C13.3204 22.3824 13.5003 22.2024 13.5001 21.9424L13.4995 21.1574H13.6545H13.7345L14.0702 22.0524C14.1553 22.2724 14.3004 22.3824 14.5054 22.3824C14.7604 22.3824 14.9403 22.1974 14.9401 21.9424C14.94 21.8724 14.92 21.7974 14.8849 21.7124L14.5443 20.8974C14.8292 20.7174 14.9989 20.3874 14.9986 20.0024C14.9984 19.6674 14.8882 19.3924 14.668 19.1774C14.4528 18.9624 14.1678 18.8574 13.8178 18.8574H13.0628C12.8028 18.8574 12.6229 19.0374 12.6231 19.2924L12.6251 21.9424ZM13.4983 19.6074H13.7133C13.9683 19.6074 14.1235 19.7824 14.1237 20.0424C14.1239 20.3024 13.959 20.4824 13.704 20.4824H13.499L13.4983 19.6074ZM15.2248 21.3424C15.2253 22.0074 15.6656 22.4074 16.3406 22.4074C16.7456 22.4074 17.0505 22.2724 17.2453 22.0024C17.3103 21.9224 17.3402 21.8324 17.3401 21.7274C17.34 21.5124 17.1898 21.3674 16.9898 21.3674C16.8998 21.3674 16.8099 21.4074 16.7199 21.4824C16.7049 21.4974 16.6 21.5974 16.565 21.6224C16.5301 21.6424 16.4351 21.6824 16.3501 21.6824C16.1701 21.6824 16.05 21.5524 16.0498 21.3324L16.0497 21.2074H17.0497C17.2947 21.2074 17.4496 21.0524 17.4494 20.8074L17.4494 20.7724C17.4491 20.4374 17.349 20.1774 17.1488 19.9924C16.9487 19.8024 16.6836 19.7074 16.3586 19.7074C16.0236 19.7074 15.7487 19.8074 15.5388 20.0024C15.329 20.1974 15.2242 20.4574 15.2244 20.7924L15.2248 21.3424ZM16.0493 20.6824C16.0492 20.4624 16.1691 20.3324 16.3491 20.3324C16.5291 20.3324 16.6492 20.4624 16.6493 20.6824L16.6493 20.7074H16.0493L16.0493 20.6824ZM17.5751 20.1324C17.5751 20.1874 17.5902 20.2574 17.6202 20.3424L18.1664 21.9424C18.2667 22.2374 18.4368 22.3824 18.6818 22.3824C18.9268 22.3824 19.0967 22.2374 19.1964 21.9424L19.7552 20.3074C19.7802 20.2324 19.7951 20.1674 19.7951 20.1124C19.7949 19.8874 19.6348 19.7324 19.4098 19.7324C19.2098 19.7324 19.0799 19.8424 19.02 20.0674L18.7059 21.1824L18.39 20.0624C18.3299 19.8374 18.1948 19.7274 17.9798 19.7274C17.7398 19.7274 17.5749 19.8974 17.5751 20.1324ZM20.489 19.5524C20.774 19.5524 20.9738 19.3524 20.9736 19.0674C20.9734 18.7874 20.7683 18.5824 20.4883 18.5824C20.3483 18.5824 20.2333 18.6274 20.1384 18.7224C20.0484 18.8124 20.0035 18.9274 20.0036 19.0674C20.0037 19.2074 20.0488 19.3224 20.1389 19.4174C20.234 19.5074 20.349 19.5524 20.489 19.5524ZM20.9094 20.1524C20.9093 19.9074 20.7341 19.7324 20.4891 19.7324C20.2441 19.7324 20.0693 19.9074 20.0694 20.1524L20.0708 21.9624C20.071 22.2074 20.2461 22.3824 20.4911 22.3824C20.7361 22.3824 20.911 22.2074 20.9108 21.9624L20.9094 20.1524ZM21.2844 21.3424C21.2849 22.0074 21.7252 22.4074 22.4002 22.4074C22.8052 22.4074 23.1101 22.2724 23.3049 22.0024C23.3698 21.9224 23.3998 21.8324 23.3997 21.7274C23.3995 21.5124 23.2494 21.3674 23.0494 21.3674C22.9594 21.3674 22.8694 21.4074 22.7795 21.4824C22.7645 21.4974 22.6596 21.5974 22.6246 21.6224C22.5896 21.6424 22.4947 21.6824 22.4097 21.6824C22.2297 21.6824 22.1096 21.5524 22.1094 21.3324L22.1093 21.2074H23.1093C23.3543 21.2074 23.5092 21.0524 23.509 20.8074L23.509 20.7724C23.5087 20.4374 23.4085 20.1774 23.2084 19.9924C23.0082 19.8024 22.7432 19.7074 22.4182 19.7074C22.0832 19.7074 21.8082 19.8074 21.5984 20.0024C21.3885 20.1974 21.2837 20.4574 21.284 20.7924L21.2844 21.3424ZM22.1089 20.6824C22.1087 20.4624 22.2286 20.3324 22.4086 20.3324C22.5886 20.3324 22.7087 20.4624 22.7089 20.6824L22.7089 20.7074H22.1089L22.1089 20.6824ZM23.6347 20.1374C23.6347 20.1824 23.6447 20.2374 23.6598 20.2974L24.1361 21.9974C24.2063 22.2524 24.3563 22.3824 24.5813 22.3824C24.8163 22.3824 24.9613 22.2574 25.0161 22.0074L25.2254 21.1124L25.4311 21.9974C25.4863 22.2524 25.6363 22.3824 25.8713 22.3824C26.0913 22.3824 26.2363 22.2524 26.3111 21.9974L26.7898 20.2774C26.8047 20.2124 26.8147 20.1574 26.8146 20.1174C26.8145 19.8924 26.6544 19.7324 26.4294 19.7324C26.2244 19.7324 26.0944 19.8424 26.0496 20.0674L25.8354 21.1124L25.5896 20.0424C25.5444 19.8374 25.4294 19.7324 25.2494 19.7324C25.0744 19.7324 24.9594 19.8374 24.9046 20.0424L24.6554 21.1124L24.4496 20.0824C24.4044 19.8474 24.2694 19.7324 24.0444 19.7324C23.7994 19.7324 23.6345 19.8974 23.6347 20.1374Z" fill="#F2F2F2"/>
<path d="M5.2384 4.28341C5.23833 4.1965 5.30873 4.12605 5.39564 4.12605L35.2585 4.12605C35.5 4.12396 35.7395 4.16603 35.9632 4.24981C36.1869 4.33359 36.3903 4.45741 36.5615 4.61407C36.7328 4.77074 36.8685 4.95712 36.9608 5.16239C37.0531 5.36766 37.1001 5.58773 37.0992 5.8098L37.1383 58.023C37.1384 58.1223 37.058 58.2027 36.9588 58.2027C36.8596 58.2027 36.7791 58.1223 36.779 58.023L36.74 6.09305C36.7329 5.64994 36.5353 5.22734 36.1904 4.91769C35.8454 4.60804 35.3813 4.43657 34.8994 4.44077L5.39588 4.44077C5.30897 4.44077 5.23846 4.37032 5.2384 4.28341Z" fill="#CCCCCC"/>
</g>
<path d="M46.8293 46.0287L43.5291 50.4655L42.7596 47.775L41.9902 45.0846L44.1266 46.5741L46.8293 46.0287Z" fill="#181818"/>
<path d="M41.9902 45.0846L44.1266 46.5741L46.8293 46.0287L49.3812 42.4039L46.7329 42.894L45.0471 41.7764L42.9011 42.2184L40.7597 40.8836L41.9902 45.0846Z" fill="#F6C09B"/>
<path d="M45.0471 41.7764L42.9011 42.2184L48.5099 10.4066L52.3417 11.0823C51.3128 16.9172 46.8451 42.2575 46.7329 42.894L45.0471 41.7764Z" fill="#FF618D"/>
<path d="M46.7329 42.894L49.3812 42.4039L54.8264 11.5204L52.3417 11.0823L46.7329 42.894Z" fill="#B83B5E"/>
<path d="M40.7597 40.8836L42.9011 42.2184L48.5099 10.4066L46.2048 10.0002L40.7597 40.8836Z" fill="#B83B5E"/>
<defs>
<clipPath id="clip0_825_2164">
<rect width="39.8371" height="58.3504" fill="white" transform="matrix(1 0 0.000750465 1 0.172852 0.824707)"/>
</clipPath>
</defs>
</svg>
