<svg width="43" height="43" viewBox="0 0 43 43" fill="none" xmlns="http://www.w3.org/2000/svg">
<path d="M40.7235 21.2124C39.3114 23.6554 37.1853 25.6339 34.6302 26.8636L34.6297 26.8631L34.6297 15.5618L34.6302 15.5612C37.1853 16.7909 39.3114 18.7694 40.7235 21.2124Z" fill="#B83B5E"/>
<path d="M15.2134 15.1855L24.8185 14.4581L24.819 14.4586L28.535 14.1769C30.7182 14.1769 32.7853 14.6741 34.6293 15.5614L34.6288 15.5619L34.6288 26.8632L34.6293 26.8637C32.7853 27.7511 30.7182 28.2483 28.535 28.2483L24.819 27.9666L15.2134 27.2387L15.2134 24.2261L15.2134 21.2126L15.2134 18.199L15.2134 15.1855ZM26.4419 24.9337C28.4973 24.9342 30.164 23.2675 30.1635 21.2121C30.164 19.1567 28.4973 17.49 26.4419 17.4905C24.3865 17.49 22.7198 19.1567 22.7203 21.2121C22.7198 23.2675 24.3865 24.9342 26.4419 24.9337Z" fill="#FFD7E2"/>
<path d="M24.822 27.9668C22.5878 30.3782 19.3929 31.8881 15.8466 31.8881C14.758 31.8875 13.7026 31.7459 12.6975 31.4785L15.2165 27.2389L24.822 27.9668Z" fill="#FFD7E2"/>
<path d="M30.164 21.2122C30.1645 23.2676 28.4978 24.9343 26.4424 24.9338C24.387 24.9343 22.7203 23.2676 22.7208 21.2122C22.7203 19.1569 24.387 17.4901 26.4424 17.4907C28.4978 17.4901 30.1645 19.1569 30.164 21.2122Z" fill="#8ECAC1"/>
<path d="M15.2153 27.2386L12.4315 25.9534C11.6659 25.6004 11.1759 24.8343 11.1764 23.9912V23.2934L15.2153 24.2261V27.2386Z" fill="#B83B5E"/>
<path d="M15.2141 24.2264L11.1751 23.2937L11.1746 23.2932L11.1746 21.2128L15.2141 21.2128L15.2141 24.2264Z" fill="#B83B5E"/>
<path d="M24.8191 14.458L15.214 15.1854L12.6951 10.9467C13.7001 10.6793 14.7556 10.5377 15.8442 10.5372C19.3905 10.5372 22.5844 12.046 24.8191 14.458Z" fill="#FFD7E2"/>
<path d="M15.2143 21.2127L11.1748 21.2127L11.1753 19.1318L15.2143 18.1991L15.2143 21.2127Z" fill="#B83B5E"/>
<path d="M15.2135 18.1987L11.1746 19.1314L11.174 18.433C11.1746 17.59 11.6641 16.8244 12.4292 16.4709L15.2135 15.1852L15.2135 18.1987Z" fill="#B83B5E"/>
<path d="M5.3906 18.761C5.26025 18.6306 5.17962 18.4504 5.17962 18.2516C5.17962 17.8537 5.50216 17.5312 5.90004 17.5311L7.99261 17.5311C8.39039 17.5312 8.71294 17.8537 8.71304 18.2516C8.71304 18.6494 8.3905 18.9719 7.99261 18.972L5.90004 18.972C5.70113 18.9719 5.52101 18.8914 5.3906 18.761Z" fill="#181818"/>
<path d="M0.50922 21.7208C0.378816 21.5904 0.298231 21.4102 0.29823 21.2113C0.29823 20.8134 0.620826 20.4909 1.01866 20.4909L7.99371 20.4915C8.3915 20.4915 8.71404 20.8141 8.71404 21.2119C8.71404 21.6097 8.39145 21.9322 7.99356 21.9322L1.01851 21.9317C0.819641 21.9318 0.639572 21.8511 0.50922 21.7208Z" fill="#181818"/>
<path d="M3.99605 24.6807C3.86565 24.5503 3.78512 24.3702 3.78507 24.1713C3.78507 23.7734 4.10761 23.4509 4.50549 23.4508L7.99272 23.4509C8.3905 23.4509 8.71299 23.7735 8.7131 24.1713C8.7131 24.5691 8.39055 24.8916 7.99267 24.8917L4.50544 24.8916C4.30658 24.8916 4.12641 24.811 3.99605 24.6807Z" fill="#181818"/>
<path d="M14.7045 27.7478C14.5741 27.6174 14.4935 27.4373 14.4935 27.2384L14.4935 15.1853C14.4935 14.7874 14.816 14.4649 15.2139 14.4648C15.6117 14.4649 15.9342 14.7874 15.9343 15.1853L15.9343 27.2385C15.9343 27.6363 15.6117 27.9588 15.2139 27.9589C15.0149 27.9588 14.8348 27.8782 14.7045 27.7478Z" fill="#181818"/>
<path d="M23.3022 24.353C22.463 23.5139 22.001 22.3983 22.0013 21.2116C22.001 20.0254 22.463 18.9098 23.3022 18.0706C24.1413 17.2315 25.2569 16.7695 26.4435 16.7697C27.6297 16.7695 28.7453 17.2314 29.5845 18.0706C30.4237 18.9098 30.8856 20.0254 30.8854 21.2119C30.8856 22.3981 30.4237 23.5137 29.5845 24.3529C28.7454 25.1919 27.6299 25.6539 26.4436 25.6538C26.4434 25.6539 26.4435 25.6538 26.4432 25.6538C25.2567 25.6541 24.1412 25.1921 23.3022 24.353ZM28.5657 19.0895C27.9987 18.5226 27.245 18.2104 26.4435 18.2107C25.6416 18.2104 24.8879 18.5226 24.3209 19.0895C23.754 19.6565 23.4418 20.4102 23.4421 21.2117C23.4418 22.0136 23.754 22.7673 24.3209 23.3343C24.8879 23.9012 25.6416 24.2134 26.4431 24.2131C26.4433 24.2132 26.4434 24.2132 26.4435 24.2131C27.245 24.2134 27.9987 23.9012 28.5657 23.3343C29.1326 22.7673 29.4448 22.0136 29.4445 21.2121C29.4448 20.4102 29.1326 19.6565 28.5657 19.0895Z" fill="#181818"/>
<path d="M10.6654 19.6407C10.5732 19.5485 10.5048 19.4302 10.4734 19.2938C10.3838 18.9061 10.6256 18.5193 11.0132 18.4298L15.0521 17.4971C15.4398 17.4076 15.8268 17.6493 15.9162 18.037C16.0057 18.4246 15.7639 18.8114 15.3764 18.9009L11.3374 19.8336C11.0861 19.8916 10.8352 19.8106 10.6654 19.6407Z" fill="#181818"/>
<path d="M10.6662 21.7217C10.5359 21.5914 10.4553 21.4113 10.4552 21.2123C10.4552 20.8145 10.7777 20.4919 11.1756 20.4919L15.2151 20.4919C15.6128 20.4919 15.9354 20.8145 15.9354 21.2122C15.9354 21.6101 15.6129 21.9327 15.2151 21.9327L11.1756 21.9327C10.9767 21.9328 10.7966 21.8521 10.6662 21.7217Z" fill="#181818"/>
<path d="M10.6683 23.8032C10.4985 23.6333 10.4173 23.3825 10.4754 23.1312C10.5649 22.7435 10.9518 22.5018 11.3393 22.5914L15.3783 23.5241C15.766 23.6134 16.0077 24.0003 15.9181 24.3881C15.8286 24.7757 15.4418 25.0174 15.0542 24.9279L11.0152 23.9952C10.8787 23.9637 10.7605 23.8954 10.6683 23.8032Z" fill="#181818"/>
<path d="M24.3099 14.9672C24.1924 14.8497 24.1148 14.6912 24.1012 14.5125C24.0711 14.1158 24.3683 13.7698 24.7651 13.7397L28.4811 13.458C28.8777 13.428 29.2237 13.7251 29.2538 14.122C29.2839 14.5187 28.9867 14.8646 28.5899 14.8946L24.8739 15.1763C24.656 15.1929 24.4532 15.1106 24.3099 14.9672Z" fill="#181818"/>
<path d="M11.303 26.0306C10.7708 25.4984 10.4555 24.7669 10.456 23.9904L10.456 23.3198C10.4557 23.3107 10.4555 23.3016 10.4555 23.2925L10.4556 18.4335C10.4563 17.313 11.1131 16.2862 12.1289 15.8169L14.9133 14.5311C14.9914 14.4951 15.0753 14.4733 15.1609 14.4668L24.7659 13.7394C25.1627 13.7095 25.5086 14.0066 25.5387 14.4033C25.5687 14.8001 25.2714 15.146 24.8747 15.1761L15.3993 15.8936L12.733 17.1248C12.2251 17.3595 11.8966 17.8732 11.8963 18.4335L11.8962 23.2658C11.8965 23.2749 11.8968 23.284 11.8967 23.2931L11.8967 23.991C11.8964 24.5513 12.2247 25.0644 12.733 25.299L15.3992 26.5298L28.5912 27.5296C28.9881 27.5597 29.2852 27.9058 29.2552 28.3023C29.2252 28.6991 28.8791 28.9963 28.4824 28.9663L15.1608 27.9565C15.0752 27.95 14.9914 27.9283 14.9134 27.8923L12.1295 26.6071C11.8172 26.4631 11.5388 26.2663 11.303 26.0306Z" fill="#181818"/>
<path d="M28.0261 28.7578C27.8958 28.6274 27.8152 28.4473 27.8151 28.2484C27.8151 27.8506 28.1377 27.528 28.5356 27.528C30.5614 27.528 32.5066 27.0862 34.3175 26.2147C36.6224 25.1055 38.5391 23.3813 39.8835 21.2127C38.5392 19.0442 36.6223 17.3199 34.3175 16.2106C32.5066 15.3392 30.5613 14.8973 28.5355 14.8973C28.1377 14.8973 27.8152 14.5748 27.8151 14.1769C27.8151 13.779 28.1376 13.4565 28.5355 13.4565C30.7793 13.4565 32.9349 13.9463 34.9422 14.9123C37.6353 16.2085 39.8501 18.2624 41.3469 20.8523C41.4757 21.0753 41.4757 21.3501 41.3469 21.5732C39.85 24.163 37.6353 26.217 34.9422 27.513C32.9349 28.479 30.7794 28.9688 28.5355 28.9688C28.3367 28.9688 28.1565 28.8882 28.0261 28.7578Z" fill="#181818"/>
<path d="M34.1204 27.3727C33.99 27.2423 33.9095 27.0622 33.9094 26.8633L33.9095 15.562C33.9095 15.1641 34.232 14.8416 34.6299 14.8415C35.0279 14.8417 35.3502 15.1642 35.3503 15.562L35.3503 26.8633C35.3503 27.2612 35.0278 27.5837 34.6299 27.5838C34.4309 27.5837 34.2508 27.5031 34.1204 27.3727Z" fill="#181818"/>
<path d="M14.7061 15.695C14.6638 15.6526 14.6264 15.6046 14.5957 15.5531L12.0768 11.3144C11.9615 11.1204 11.9438 10.8833 12.0291 10.6744C12.1143 10.4653 12.2927 10.3083 12.5108 10.2503C13.5905 9.96298 14.7122 9.81704 15.8447 9.81653C19.4391 9.81653 22.903 11.3281 25.3461 13.9656C25.6106 14.248 25.6053 14.6916 25.3297 14.9673C25.0484 15.2486 24.5925 15.2489 24.3111 14.9675L24.3106 14.967C24.3042 14.9605 24.2978 14.954 24.2916 14.9472C22.1196 12.6022 19.0403 11.2572 15.8451 11.2573C15.1639 11.2575 14.4873 11.317 13.824 11.4343L15.8265 14.8039C16.0002 15.0819 15.9664 15.453 15.7247 15.6947C15.4434 15.976 14.9875 15.9763 14.7061 15.695Z" fill="#181818"/>
<path d="M12.1882 31.9874C12.1212 31.9204 12.0673 31.8401 12.0306 31.7501C11.9453 31.541 11.963 31.3041 12.0783 31.1101L14.5971 26.8704C14.8004 26.5283 15.2424 26.4158 15.5844 26.6191C15.9265 26.822 16.039 27.2643 15.8358 27.6063L13.8254 30.9901C14.4887 31.1075 15.1655 31.1668 15.8469 31.1672C19.0417 31.1672 22.1206 29.8221 24.2935 27.4766C24.564 27.1848 25.0197 27.1674 25.3116 27.4377C25.6041 27.7065 25.6208 28.164 25.3505 28.4558C22.9057 31.0944 19.4417 32.6079 15.8465 32.6079C14.7138 32.6073 13.5921 32.4614 12.5123 32.1741C12.3881 32.1412 12.2768 32.076 12.1882 31.9874Z" fill="#181818"/>
</svg>
