<svg width="75" height="75" viewBox="0 0 75 75" fill="none" xmlns="http://www.w3.org/2000/svg">
<path d="M69.999 5.01674L60.0126 5.0011L70.0146 15.0032L69.999 5.01674Z" fill="#B83B5E"/>
<path d="M69.999 20.0044L60.0126 19.9888L70.0146 29.9908L69.999 20.0044Z" fill="#B83B5E"/>
<path d="M69.999 35.0073L60.0126 34.9917L70.0146 44.9938L69.999 35.0073Z" fill="#B83B5E"/>
<path d="M69.999 50.0105L60.0126 49.9949L70.0146 59.9969L69.999 50.0105Z" fill="#B83B5E"/>
<path d="M69.999 65.0134L60.0126 64.9978L70.0146 74.9999L69.999 65.0134Z" fill="#B83B5E"/>
<path d="M54.9961 50.0105L45.0096 49.9949L55.0117 59.9969L54.9961 50.0105Z" fill="#B83B5E"/>
<path d="M39.9932 35.0073L30.0067 34.9917L40.0088 44.9938L39.9932 35.0073Z" fill="#B83B5E"/>
<path d="M54.9961 35.0073L45.0096 34.9917L55.0117 44.9938L54.9961 35.0073Z" fill="#B83B5E"/>
<path d="M39.9932 20.0044L30.0067 19.9888L40.0088 29.9908L39.9932 20.0044Z" fill="#B83B5E"/>
<path d="M54.9961 20.0044L45.0096 19.9888L55.0117 29.9908L54.9961 20.0044Z" fill="#B83B5E"/>
<path d="M39.9932 5.00099L30.0067 4.98535L40.0088 14.9874L39.9932 5.00099Z" fill="#B83B5E"/>
<path d="M24.9893 20.0044L15.0028 19.9888L25.0049 29.9908L24.9893 20.0044Z" fill="#B83B5E"/>
<path d="M24.9893 5.00124L15.0028 4.9856L25.0049 14.9877L24.9893 5.00124Z" fill="#B83B5E"/>
<path d="M9.98634 5.00099L-0.00012471 4.98535L10.002 14.9874L9.98634 5.00099Z" fill="#B83B5E"/>
<path d="M54.9961 5.00124L45.0096 4.9856L55.0117 14.9877L54.9961 5.00124Z" fill="#B83B5E"/>
</svg>
